<svg width="180" height="180" viewBox="0 0 180 180" fill="none" xmlns="http://www.w3.org/2000/svg">
<g clip-path="url(#clip0_679_2254)">
<path d="M149.643 149.662C182.593 116.711 182.593 63.2881 149.643 30.3376C116.692 -2.61286 63.2689 -2.61287 30.3184 30.3376C-2.6321 63.2881 -2.6321 116.711 30.3184 149.662C63.2689 182.612 116.692 182.612 149.643 149.662Z" fill="#46CC6B"/>
<path fill-rule="evenodd" clip-rule="evenodd" d="M173.16 104.314C167.156 139.442 139.44 167.156 104.313 173.16L58.8905 127.738C48.0213 118.768 41.0938 105.193 41.0938 90C41.0938 62.9898 62.9891 41.0945 89.9993 41.0945C105.192 41.0945 118.767 48.0224 127.737 58.8913L173.16 104.314Z" fill="#179C5F"/>
<path fill-rule="evenodd" clip-rule="evenodd" d="M67.1076 92.9039L81.0358 105.694C83.0675 107.565 86.2122 107.465 88.123 105.495L112.971 81.7045C114.992 79.7611 115.053 76.5457 113.109 74.5235C111.165 72.5045 107.951 72.4412 105.93 74.3846L84.407 94.9922L73.9884 85.4251C71.9244 83.526 68.7086 83.6592 66.8084 85.7253C64.9086 87.7894 65.0425 91.003 67.1076 92.9039ZM89.9993 41.0945C117.009 41.0945 138.905 62.9898 138.905 90C138.905 117.01 117.009 138.906 89.9993 138.906C62.9891 138.906 41.0938 117.01 41.0938 90C41.0938 62.9898 62.9891 41.0945 89.9993 41.0945Z" fill="white"/>
</g>
<defs>
<clipPath id="clip0_679_2254">
<rect width="180" height="180" fill="white"/>
</clipPath>
</defs>
</svg>
