<svg width="40" height="40" viewBox="0 0 40 40" fill="none" xmlns="http://www.w3.org/2000/svg">
<path d="M8.43512 33.4085C10.6257 35 13.7504 35 20 35C26.2495 35 29.3743 35 31.5648 33.4085C32.2723 32.8945 32.8945 32.2723 33.4085 31.5648C35 29.3743 35 26.2495 35 20C35 13.7504 35 10.6257 33.4085 8.43512C32.8945 7.72767 32.2723 7.10552 31.5648 6.59152C29.3743 5 26.2495 5 20 5C13.7504 5 10.6257 5 8.43512 6.59152C7.72767 7.10552 7.10552 7.72767 6.59152 8.43512C5 10.6257 5 13.7504 5 20C5 26.2495 5 29.3743 6.59152 31.5648C7.10552 32.2723 7.72767 32.8945 8.43512 33.4085Z" stroke="#F97316" stroke-width="2" stroke-linecap="round" stroke-linejoin="round"/>
<path d="M28.3333 30.0003L30 28.3337M21.6667 30.0003L30 21.667M15 30L30 15" stroke="#F97316" stroke-width="2" stroke-linecap="round" stroke-linejoin="round"/>
</svg>
