<svg width="48" height="48" viewBox="0 0 48 48" fill="none" xmlns="http://www.w3.org/2000/svg">
<path fill-rule="evenodd" clip-rule="evenodd" d="M38.6878 34.9086C38.4009 34.2589 38.1478 33.6973 38.5388 33.2651C38.8641 32.9023 38.9634 32.4458 38.8219 31.9789C38.6728 31.4933 38.9409 31.1286 39.1359 30.8633C39.3844 30.5305 39.5803 30.267 39.3581 29.6389C38.8678 28.2411 39.435 27.8501 40.3575 27.4133C40.5909 27.3026 40.8553 27.1761 41.1581 26.9998C41.4413 26.833 41.6484 26.5648 41.7328 26.2433C41.8172 25.9217 41.7713 25.588 41.6063 25.303L38.5247 20.0258C38.4403 19.8748 38.4253 19.693 38.49 19.5317C40.2469 15.1798 39.045 11.623 34.4663 7.63577C29.0063 2.88264 21.8588 1.24295 15.8138 3.35702C10.5797 5.18795 6.97313 9.52952 5.91657 15.268C5.19657 19.2017 7.65844 23.6595 10.0397 27.9711C10.5225 28.8448 10.9781 29.6698 11.4103 30.4939C11.4216 30.5164 11.4338 30.5398 11.4413 30.5642C13.1944 35.443 12.6703 41.2508 10.1738 45.3814H29.6231V39.9626C29.6231 39.8126 29.6803 39.6683 29.7881 39.5633C29.895 39.4573 30.0413 39.3964 30.1903 39.4001C36.4041 39.4723 38.4066 38.4355 38.985 37.5533C39.5109 36.748 39.0553 35.728 38.6878 34.9086ZM21.0413 19.407C16.6688 22.9376 13.6828 22.9376 9.31032 19.407C13.5872 15.808 16.7644 15.8089 21.0413 19.407ZM19.38 16.8411C17.715 15.8783 16.1372 15.4705 14.5444 15.6167C13.7484 14.4148 13.2506 12.7686 13.0088 10.497C15.2831 10.693 16.9481 11.1842 18.1809 12.0214C18.0319 13.603 18.4303 15.1648 19.38 16.8411ZM21.9216 18.5464C18.3919 14.173 18.3919 11.1851 21.9216 6.81264C25.5206 11.0886 25.5206 14.2705 21.9216 18.5464ZM24.4875 16.8823C25.4522 15.2192 25.8581 13.6395 25.7128 12.0476C26.9147 11.2498 28.5609 10.7548 30.8316 10.5111C30.6366 12.7845 30.1463 14.4495 29.3081 15.687C27.7266 15.5342 26.1638 15.9326 24.4875 16.8823ZM22.7831 19.4258C27.1556 15.8951 30.1453 15.8951 34.5178 19.4258C30.2419 23.0248 27.06 23.0248 22.7831 19.4258ZM28.6491 23.2451C26.4863 23.2451 24.315 22.2148 21.9066 20.1551C19.4409 22.1708 17.3081 23.1786 15.1763 23.1786C12.9366 23.1786 10.6969 22.0676 8.07376 19.8458C8.01284 19.7932 7.96366 19.7283 7.92942 19.6555C7.89518 19.5827 7.87664 19.5034 7.87501 19.423C7.87501 19.2598 7.94438 19.1042 8.06626 18.9964C9.94219 17.3286 11.6691 16.2739 13.3538 15.8305C12.5269 14.3951 12.0366 12.493 11.8266 9.93545C11.8116 9.77327 11.8688 9.61295 11.9831 9.49577C12.0396 9.43808 12.1079 9.39323 12.1833 9.36427C12.2587 9.33531 12.3394 9.32293 12.42 9.32795C14.9963 9.48077 16.9228 9.96358 18.4041 10.8326C18.8447 9.18452 19.8703 7.48295 21.4866 5.57889C21.5897 5.4542 21.7434 5.38202 21.9075 5.38014H21.915C22.0763 5.38014 22.2291 5.44858 22.3359 5.56858C24.0009 7.44639 25.0584 9.17139 25.4981 10.857C26.9381 10.0292 28.8366 9.53889 31.3941 9.32795C31.5591 9.31389 31.7194 9.37202 31.8347 9.48639C31.8931 9.54219 31.9386 9.61018 31.9677 9.68553C31.9969 9.76088 32.0091 9.84173 32.0034 9.92233C31.8506 12.4986 31.3678 14.427 30.4988 15.9045C32.145 16.3461 33.8484 17.3736 35.7516 18.988C35.8138 19.0395 35.8638 19.1041 35.8982 19.1771C35.9326 19.2502 35.9504 19.33 35.9503 19.4108C35.9541 19.5739 35.8856 19.7295 35.7628 19.8373C33.2006 22.1089 30.9272 23.2451 28.6491 23.2451Z" fill="#FA954C"/>
</svg>
