<svg width="40" height="40" viewBox="0 0 40 40" fill="none" xmlns="http://www.w3.org/2000/svg">
<g clip-path="url(#clip0_348_3701)">
<path d="M20 0C8.95469 0 0 8.95469 0 20C0 31.0453 8.95469 40 20 40C31.0453 40 40 31.0453 40 20C40 8.95469 31.0453 0 20 0ZM16.9992 7.10938C17.9515 7.10891 18.8824 7.39086 19.6744 7.91955C20.4664 8.44825 21.0838 9.19994 21.4485 10.0796C21.8132 10.9592 21.9089 11.9272 21.7234 12.8612C21.5379 13.7952 21.0796 14.6532 20.4064 15.3267C19.7333 16.0002 18.8755 16.4589 17.9416 16.6448C17.0077 16.8308 16.0396 16.7356 15.1598 16.3713C14.2801 16.007 13.5281 15.39 12.999 14.5982C12.4699 13.8065 12.1875 12.8757 12.1875 11.9234C12.1875 10.6471 12.6944 9.42295 13.5967 8.52021C14.499 7.61747 15.7229 7.11 16.9992 7.10938ZM17.8508 30.3312C17.5695 30.3531 17.2859 30.3633 16.9992 30.3633C15.2483 30.3647 13.5205 29.9626 11.9501 29.1883C10.3797 28.414 9.00875 27.2883 7.94375 25.8984C7.85221 25.7793 7.78838 25.6413 7.75689 25.4944C7.7254 25.3475 7.72705 25.1954 7.76172 25.0492C8.72109 20.9984 11.5188 17.8617 15.0164 16.9883C16.2912 17.4873 17.7072 17.4873 18.982 16.9883C21.518 17.6211 23.6852 19.443 25.0516 21.9406L18.5484 28.4437C18.3026 28.6888 18.1334 29.0002 18.0617 29.3398L17.8508 30.3312ZM19.1984 32.8711C19.0568 32.9012 18.9099 32.8955 18.771 32.8543C18.6322 32.8132 18.5058 32.738 18.4034 32.6356C18.301 32.5333 18.2258 32.4069 18.1847 32.268C18.1436 32.1292 18.1378 31.9823 18.168 31.8406L18.6664 29.4969L21.5398 32.3695L19.1984 32.8711ZM22.1266 32.0758L18.9633 28.9125L28.9266 18.9492L32.0906 22.1094L22.1266 32.0758ZM33.2031 21.0031L32.5359 21.6703L29.3727 18.507L30.0398 17.8398C30.1401 17.7395 30.2592 17.6599 30.3902 17.6056C30.5212 17.5513 30.6617 17.5234 30.8035 17.5234C30.9454 17.5234 31.0858 17.5513 31.2168 17.6056C31.3479 17.6599 31.4669 17.7395 31.5672 17.8398L33.2031 19.4805C33.4045 19.6827 33.5176 19.9564 33.5176 20.2418C33.5176 20.5272 33.4045 20.8009 33.2031 21.0031Z" fill="#FA954C"/>
</g>
<defs>
<clipPath id="clip0_348_3701">
<rect width="40" height="40" fill="white"/>
</clipPath>
</defs>
</svg>
