<svg width="40" height="40" viewBox="0 0 40 40" fill="none" xmlns="http://www.w3.org/2000/svg">
<path d="M36.25 6.81875V10.7812H1.25V6.81875C1.25 5.38125 2.4125 4.21875 3.85 4.21875H33.65C35.0875 4.21875 36.25 5.38125 36.25 6.81875ZM17.1875 17.6562H20.3125V20.7812H17.1875V17.6562Z" fill="#FA954C"/>
<path d="M7.1875 17.6562V20.7812H10.3125V17.6562H7.1875ZM7.1875 17.6562V20.7812H10.3125V17.6562H7.1875ZM1.25 12.6562V34.1188C1.25 35.5563 2.4125 36.7188 3.85 36.7188H23.3375C22.38 35.2271 21.8723 33.4913 21.875 31.7188C21.875 26.5438 26.075 22.3438 31.25 22.3438C33.0875 22.3438 34.8125 22.8813 36.25 23.8062V12.6562H1.25ZM12.1875 31.7188C12.1875 32.2313 11.7625 32.6562 11.25 32.6562H6.25C5.7375 32.6562 5.3125 32.2313 5.3125 31.7188V26.7188C5.3125 26.2062 5.7375 25.7812 6.25 25.7812H11.25C11.7625 25.7812 12.1875 26.2062 12.1875 26.7188V31.7188ZM12.1875 21.7188C12.1875 22.2313 11.7625 22.6562 11.25 22.6562H6.25C5.7375 22.6562 5.3125 22.2313 5.3125 21.7188V16.7188C5.3125 16.2063 5.7375 15.7812 6.25 15.7812H11.25C11.7625 15.7812 12.1875 16.2063 12.1875 16.7188V21.7188ZM22.1875 21.7188C22.1875 22.2313 21.7625 22.6562 21.25 22.6562H16.25C15.7375 22.6562 15.3125 22.2313 15.3125 21.7188V16.7188C15.3125 16.2063 15.7375 15.7812 16.25 15.7812H21.25C21.7625 15.7812 22.1875 16.2063 22.1875 16.7188V21.7188ZM7.1875 30.7812H10.3125V27.6562H7.1875V30.7812ZM7.1875 20.7812H10.3125V17.6562H7.1875V20.7812ZM18.75 7.65625C18.5014 7.65625 18.2629 7.55748 18.0871 7.38166C17.9113 7.20585 17.8125 6.96739 17.8125 6.71875V1.71875C17.8125 1.47011 17.9113 1.23165 18.0871 1.05584C18.2629 0.880022 18.5014 0.78125 18.75 0.78125C18.9986 0.78125 19.2371 0.880022 19.4129 1.05584C19.5887 1.23165 19.6875 1.47011 19.6875 1.71875V6.71875C19.6875 6.96739 19.5887 7.20585 19.4129 7.38166C19.2371 7.55748 18.9986 7.65625 18.75 7.65625ZM6.25 7.65625C6.00136 7.65625 5.7629 7.55748 5.58709 7.38166C5.41127 7.20585 5.3125 6.96739 5.3125 6.71875V1.71875C5.3125 1.47011 5.41127 1.23165 5.58709 1.05584C5.7629 0.880022 6.00136 0.78125 6.25 0.78125C6.49864 0.78125 6.7371 0.880022 6.91291 1.05584C7.08873 1.23165 7.1875 1.47011 7.1875 1.71875V6.71875C7.1875 6.96739 7.08873 7.20585 6.91291 7.38166C6.7371 7.55748 6.49864 7.65625 6.25 7.65625ZM31.25 7.65625C31.0014 7.65625 30.7629 7.55748 30.5871 7.38166C30.4113 7.20585 30.3125 6.96739 30.3125 6.71875V1.71875C30.3125 1.47011 30.4113 1.23165 30.5871 1.05584C30.7629 0.880022 31.0014 0.78125 31.25 0.78125C31.4986 0.78125 31.7371 0.880022 31.9129 1.05584C32.0887 1.23165 32.1875 1.47011 32.1875 1.71875V6.71875C32.1875 6.96739 32.0887 7.20585 31.9129 7.38166C31.7371 7.55748 31.4986 7.65625 31.25 7.65625Z" fill="#FA954C"/>
<path d="M31.25 24.2188C27.1125 24.2188 23.75 27.5813 23.75 31.7188C23.75 35.8562 27.1125 39.2188 31.25 39.2188C35.3875 39.2188 38.75 35.8562 38.75 31.7188C38.75 27.5813 35.3875 24.2188 31.25 24.2188ZM33.75 32.6562H31.25C30.7375 32.6562 30.3125 32.2312 30.3125 31.7188V27.9688C30.3125 27.4562 30.7375 27.0312 31.25 27.0312C31.7625 27.0312 32.1875 27.4562 32.1875 27.9688V30.7812H33.75C34.2625 30.7812 34.6875 31.2063 34.6875 31.7188C34.6875 32.2312 34.2625 32.6562 33.75 32.6562Z" fill="#FA954C"/>
</svg>
