<svg width="40" height="40" viewBox="0 0 40 40" fill="none" xmlns="http://www.w3.org/2000/svg">
<path d="M23.9051 3.19035C22.7997 2.29754 21.4218 1.81055 20.0009 1.81055C18.58 1.81055 17.2021 2.29754 16.0967 3.19035L4.43005 12.5237C3.69636 13.1076 3.10418 13.8499 2.69781 14.6949C2.29144 15.54 2.0814 16.466 2.08339 17.4037V33.3337C2.08471 34.5489 2.56802 35.7139 3.42728 36.5731C4.28653 37.4324 5.45155 37.9157 6.66672 37.917H11.6667C12.8819 37.9157 14.0469 37.4324 14.9062 36.5731C15.7654 35.7139 16.2487 34.5489 16.2501 33.3337V28.3337C16.2501 27.3391 16.6451 26.3853 17.3484 25.682C18.0517 24.9788 19.0055 24.5837 20.0001 24.5837C20.9946 24.5837 21.9484 24.9788 22.6517 25.682C23.355 26.3853 23.7501 27.3391 23.7501 28.3337V33.3337C23.7514 34.5489 24.2347 35.7139 25.0939 36.5731C25.9532 37.4324 27.1182 37.9157 28.3334 37.917H33.3334C34.5486 37.9157 35.7136 37.4324 36.5728 36.5731C37.4321 35.7139 37.9154 34.5489 37.9167 33.3337V17.4037C37.9192 16.4659 37.7094 15.5397 37.303 14.6946C36.8966 13.8495 36.3041 13.1073 35.57 12.5237L23.9051 3.19035Z" fill="#FA954C"/>
</svg>
