<svg width="48" height="48" viewBox="0 0 48 48" fill="none" xmlns="http://www.w3.org/2000/svg">
<path fill-rule="evenodd" clip-rule="evenodd" d="M19.752 4.44799C21.071 3.7886 22.5254 3.44531 24 3.44531C25.4746 3.44531 26.929 3.7886 28.248 4.44799L38.46 9.55199C39.3736 10.0089 40.142 10.7112 40.6789 11.5802C41.2158 12.4491 41.5002 13.4505 41.5 14.472V29.566C41.5001 31.1772 41.0905 32.7619 40.3095 34.1711C39.5286 35.5804 38.4022 36.7679 37.036 37.622L26.916 43.948C26.0417 44.4947 25.0312 44.7846 24 44.7846C22.9688 44.7846 21.9583 44.4947 21.084 43.948L10.964 37.622C9.59785 36.7679 8.47135 35.5804 7.69045 34.1711C6.90955 32.7619 6.49989 31.1772 6.5 29.566V14.472C6.49985 13.4505 6.78417 12.4491 7.32111 11.5802C7.85805 10.7112 8.62638 10.0089 9.54 9.55199L19.752 4.44799ZM31.06 21.06C31.2074 20.9227 31.3256 20.7571 31.4076 20.5731C31.4895 20.3891 31.5336 20.1904 31.5372 19.989C31.5407 19.7876 31.5037 19.5876 31.4282 19.4008C31.3528 19.214 31.2405 19.0444 31.0981 18.9019C30.9556 18.7595 30.786 18.6472 30.5992 18.5717C30.4124 18.4963 30.2124 18.4593 30.011 18.4628C29.8095 18.4664 29.6109 18.5104 29.4269 18.5924C29.2429 18.6744 29.0773 18.7926 28.94 18.94L22 25.88L19.06 22.94C18.7757 22.675 18.3996 22.5308 18.011 22.5376C17.6224 22.5445 17.2516 22.7019 16.9768 22.9767C16.7019 23.2516 16.5445 23.6223 16.5376 24.0109C16.5308 24.3995 16.675 24.7756 16.94 25.06L20.94 29.06C21.2213 29.3409 21.6025 29.4987 22 29.4987C22.3975 29.4987 22.7787 29.3409 23.06 29.06L31.06 21.06Z" fill="#FA954C"/>
</svg>
