<svg width="48" height="48" viewBox="0 0 48 48" fill="none" xmlns="http://www.w3.org/2000/svg">
<path d="M45.4576 29.2078L44.4113 28.6041C40.9491 26.6053 40.9407 21.3994 44.4113 19.3959L45.4576 18.7922C46.801 18.0159 47.2623 16.2928 46.487 14.9503L43.081 9.04969C42.3057 7.70719 40.5816 7.24594 39.2391 8.02031L38.1966 8.62219C34.7588 10.6069 30.2185 8.05594 30.2185 4.02562V2.8125C30.2185 1.26187 28.9566 0 27.406 0H20.5932C19.0426 0 17.7807 1.26187 17.7807 2.8125V4.02562C17.7807 8.05688 13.2385 10.6069 9.80164 8.62219L8.76008 8.02031C7.41383 7.24313 5.69539 7.70344 4.91821 9.04969L1.51133 14.9503C0.73602 16.2928 1.19821 18.0159 2.54071 18.7922L3.58789 19.3959C7.04914 21.3947 7.05758 26.6006 3.58789 28.6041L2.54071 29.2078C1.19821 29.9841 0.73602 31.7072 1.51133 33.0497L4.91821 38.9503C5.69352 40.2928 7.41664 40.755 8.76008 39.9797L9.80164 39.3778C13.2413 37.3922 17.7807 39.9497 17.7807 43.9744V45.1875C17.7807 46.7381 19.0426 48 20.5932 48H27.406C28.9566 48 30.2185 46.7381 30.2185 45.1875V43.9744C30.2185 39.9441 34.7598 37.3931 38.1966 39.3778L39.2391 39.9797C40.5816 40.755 42.3057 40.2928 43.081 38.9503L46.487 33.0497C47.2641 31.7044 46.8038 29.9859 45.4576 29.2078ZM23.9991 36.0581C17.3504 36.0581 11.941 30.6488 11.941 24C11.941 17.3512 17.3504 11.9419 23.9991 11.9419C30.6488 11.9419 36.0582 17.3512 36.0582 24C36.0582 30.6488 30.6488 36.0581 23.9991 36.0581Z" fill="#FA954C"/>
<path d="M23.9991 14.7539C18.901 14.7539 14.7535 18.9014 14.7535 23.9995C14.7535 29.0977 18.901 33.2452 23.9991 33.2452C29.0973 33.2452 33.2457 29.0977 33.2457 23.9995C33.2457 18.9014 29.0973 14.7539 23.9991 14.7539ZM28.9238 22.988L23.1563 27.2695C22.5835 27.6942 21.7819 27.6239 21.2926 27.1027L18.8879 24.5395C18.3563 23.9733 18.3844 23.0827 18.9507 22.552C19.5169 22.0205 20.4066 22.0486 20.9382 22.6148L22.486 24.2639L27.2476 20.7295C27.871 20.2673 28.7523 20.3977 29.2154 21.0211C29.6776 21.6445 29.5473 22.5258 28.9238 22.988Z" fill="#FA954C"/>
</svg>
