<svg width="48" height="48" viewBox="0 0 48 48" fill="none" xmlns="http://www.w3.org/2000/svg">
<g clip-path="url(#clip0_348_3672)">
<path d="M19.7809 14.5312C8.92531 14.5312 0.000122992 21.9963 0.000122992 31.1724C0.000122992 34.8404 1.42287 38.5682 4.03203 41.4575L0.34756 45.6679C0.169679 45.8711 0.0542056 46.1213 0.0149945 46.3885C-0.0242167 46.6557 0.0144994 46.9286 0.126498 47.1743C0.237929 47.4204 0.417917 47.6291 0.644909 47.7755C0.8719 47.9219 1.13627 47.9997 1.40637 47.9997H21.1872C29.2023 47.9997 39.5617 41.0978 39.5617 31.1724C39.5617 21.9963 30.6365 14.5312 19.7809 14.5312ZM11.2498 33.75C9.6994 33.75 8.43744 32.4879 8.43744 30.9376C8.43744 29.3872 9.6995 28.1252 11.2498 28.1252C12.8002 28.1252 14.0622 29.3872 14.0622 30.9376C14.0623 32.4879 12.8003 33.75 11.2498 33.75ZM19.7809 33.75C18.2305 33.75 16.9685 32.4879 16.9685 30.9376C16.9685 29.3872 18.2306 28.1252 19.7809 28.1252C21.3312 28.1252 22.5933 29.3872 22.5933 30.9376C22.5933 32.4879 21.3313 33.75 19.7809 33.75ZM28.312 33.75C26.7615 33.75 25.4996 32.4879 25.4996 30.9376C25.4996 29.3872 26.7616 28.1252 28.312 28.1252C29.8623 28.1252 31.1244 29.3872 31.1244 30.9376C31.1244 32.4879 29.8624 33.75 28.312 33.75Z" fill="#FA954C"/>
<path d="M47.6598 28.6155L44.3489 24.7526C46.7123 22.0858 47.9991 18.8338 47.9991 15.4694C47.999 6.94007 39.7979 0.000976562 29.7182 0.000976562C20.6034 0.000976562 12.8595 5.6812 11.4922 13.0744C14.0354 12.2102 16.8876 11.719 19.781 11.719C32.0953 11.719 42.2127 20.3201 42.3605 30.9377H46.5928C47.7941 30.9378 48.4392 29.5233 47.6598 28.6155Z" fill="#FDC9A4"/>
</g>
<defs>
<clipPath id="clip0_348_3672">
<rect width="48" height="48" fill="white"/>
</clipPath>
</defs>
</svg>
