<svg width="40" height="40" viewBox="0 0 40 40" fill="none" xmlns="http://www.w3.org/2000/svg">
<g clip-path="url(#clip0_308_1274)">
<path d="M29.1145 19.032V31.4948H20.3161V27.6578C20.3161 26.4334 19.3235 25.4409 18.0992 25.4409C16.8749 25.4409 15.8824 26.4335 15.8824 27.6578V31.4948H7.08392V19.032L10.7685 16.2578L12.5367 14.9258L18.0988 10.7358L23.6618 14.9258L29.1145 19.032Z" fill="#F8F6F6"/>
<path d="M29.1145 19.032V31.4948H20.3161V27.6578C20.3161 26.4334 19.3235 25.4409 18.0992 25.4409C16.8749 25.4409 15.8824 26.4335 15.8824 27.6578V31.4948H7.08392V19.032L10.7685 16.2578L12.5367 14.9258L18.0988 10.7358L23.6618 14.9258L29.1145 19.032Z" fill="#F8F6F6"/>
<path d="M29.1146 19.0315V19.7422C27.0164 21.4975 24.3162 22.5551 21.373 22.5551C16.8048 22.5551 12.8209 20.007 10.7685 16.2573L12.5367 14.9253L18.0989 10.7354L23.6619 14.9253L29.1146 19.0315Z" fill="#E2E2E2"/>
<path d="M29.1146 19.0316V31.4944H26.5697V17.1152L29.1146 19.0316Z" fill="#E2E2E2"/>
<path d="M29.1148 19.0311V22.2707L18.0992 14.1968L7.08369 22.2715V19.0311L12.5364 14.9252L18.0992 10.7354L23.6621 14.9252L29.1148 19.0311Z" fill="#E2E2E2"/>
<path d="M26.5442 31.4277H23.4639V24.6858C23.4639 24.5837 23.5045 24.4857 23.5767 24.4135C23.6489 24.3413 23.7468 24.3008 23.8489 24.3008H26.1591C26.2612 24.3008 26.3591 24.3413 26.4313 24.4135C26.5035 24.4857 26.5441 24.5837 26.5441 24.6858V31.4277H26.5442ZM12.7345 31.4277H9.65431V24.6858C9.65431 24.5837 9.69487 24.4857 9.76708 24.4135C9.83928 24.3413 9.9372 24.3008 10.0393 24.3008H12.3495C12.4516 24.3008 12.5495 24.3413 12.6217 24.4135C12.6939 24.4857 12.7345 24.5837 12.7345 24.6858L12.7345 31.4277Z" fill="#CED6CF"/>
<path d="M7.08392 31.0254H15.8824V33.8785H7.48635C7.37963 33.8785 7.2773 33.8361 7.20184 33.7606C7.12638 33.6851 7.08396 33.5828 7.08392 33.4761V31.0254ZM29.1145 31.0254V33.4761C29.1145 33.5828 29.0721 33.6851 28.9966 33.7606C28.9212 33.8361 28.8188 33.8785 28.7121 33.8785H20.3162V31.0254H29.1145Z" fill="#FA954C"/>
<path d="M29.1148 31.0249V33.4755C29.1148 33.5284 29.1044 33.5807 29.0842 33.6295C29.064 33.6784 29.0343 33.7227 28.9969 33.7601C28.9596 33.7975 28.9152 33.8271 28.8664 33.8473C28.8175 33.8676 28.7652 33.878 28.7124 33.8779H26.5698V31.0249H29.1148Z" fill="#B3C0B4"/>
<path d="M32.1295 19.9116L31.0719 21.3538C31.0441 21.3917 31.0091 21.4237 30.969 21.448C30.9288 21.4723 30.8842 21.4885 30.8378 21.4956C30.7914 21.5027 30.744 21.5006 30.6984 21.4894C30.6528 21.4782 30.6099 21.4581 30.572 21.4303L18.0988 12.2882L11.36 17.2274L5.62643 21.4302C5.5886 21.4581 5.54566 21.4781 5.50006 21.4894C5.45446 21.5006 5.40711 21.5027 5.36069 21.4956C5.31428 21.4885 5.26972 21.4723 5.22956 21.448C5.18941 21.4236 5.15444 21.3916 5.12666 21.3538L4.06908 19.9116C4.01305 19.8349 3.98971 19.7391 4.0042 19.6453C4.01868 19.5514 4.0698 19.4672 4.14635 19.4109L10.1697 14.9964L17.3592 9.72642C17.5739 9.56915 17.8331 9.48438 18.0993 9.48438C18.3654 9.48438 18.6246 9.56915 18.8393 9.72642L32.0522 19.4109C32.1287 19.4672 32.1799 19.5514 32.1944 19.6453C32.2088 19.7391 32.1855 19.8349 32.1295 19.9116Z" fill="#FEDCC5"/>
<path d="M32.1295 19.9116L31.0719 21.3538C31.0441 21.3917 31.0091 21.4237 30.969 21.448C30.9288 21.4723 30.8842 21.4885 30.8378 21.4956C30.7914 21.5027 30.744 21.5006 30.6984 21.4894C30.6528 21.4782 30.6099 21.4581 30.5721 21.4303L18.0988 12.2882L11.36 17.2274C10.886 16.5276 10.4871 15.7798 10.1697 14.9964L17.3592 9.72642C17.5739 9.56915 17.8331 9.48438 18.0993 9.48438C18.3654 9.48438 18.6246 9.56915 18.8393 9.72642L32.0522 19.4109C32.1288 19.4672 32.1799 19.5514 32.1944 19.6453C32.2088 19.7391 32.1855 19.8349 32.1295 19.9116Z" fill="#FDC9A4"/>
<path d="M20.9372 33.8784H15.2611V27.6037C15.2611 26.0362 16.5317 24.7656 18.0992 24.7656C19.6666 24.7656 20.9372 26.0362 20.9372 27.6037V33.8784Z" fill="#9C9C9C"/>
<path d="M20.9374 27.6034V33.8782H18.7856V27.6034C18.7856 26.8196 18.468 26.1095 17.9547 25.5962C17.6888 25.3296 17.3721 25.1191 17.0233 24.9773C17.3645 24.8365 17.7301 24.7644 18.0992 24.7651C18.883 24.7651 19.5931 25.0828 20.1064 25.5961C20.6197 26.1095 20.9374 26.8196 20.9374 27.6034Z" fill="#838383"/>
<path d="M19.067 30.3138H19.061C18.7276 30.3105 18.456 30.0376 18.4593 29.7042C18.4625 29.3729 18.7282 29.1064 19.0588 29.1064H19.0648L19.0728 29.1065C19.2318 29.1089 19.3835 29.174 19.4948 29.2876C19.6061 29.4011 19.6681 29.554 19.6674 29.7131C19.6666 29.8721 19.6031 30.0244 19.4907 30.1369C19.3783 30.2493 19.226 30.3129 19.067 30.3138Z" fill="#7A7A7A"/>
<path d="M34.4136 21.5281C33.7467 22.1848 33.083 22.8448 32.4224 23.508L28.8627 19.9474L26.2615 17.3462C26.9229 16.6842 27.5813 16.0191 28.2366 15.3511L34.4136 21.5281Z" fill="#9C9C9C"/>
<path d="M30.8474 17.9623C30.2645 18.6984 29.5985 19.3647 28.8627 19.9479L26.2615 17.3467C26.9229 16.6847 27.5813 16.0196 28.2366 15.3516L30.8474 17.9623Z" fill="#838383"/>
<path d="M40.5092 32.8815L31.5942 23.9663C31.4542 23.8263 31.3756 23.6365 31.3756 23.4385C31.3756 23.2406 31.4542 23.0507 31.5942 22.9108L33.8107 20.6942C34.1022 20.4027 34.5748 20.4027 34.8662 20.6942L43.7813 29.6094C43.9213 29.7493 43.9999 29.9392 43.9999 30.1371C43.9999 30.3351 43.9213 30.5249 43.7813 30.6649L41.5648 32.8815C41.4248 33.0214 41.235 33.1001 41.037 33.1001C40.8391 33.1001 40.6492 33.0214 40.5092 32.8815Z" fill="#FDC9A4"/>
<path d="M43.781 30.6648L42.0614 32.3844C42.2014 32.2444 42.2801 32.0545 42.2801 31.8565C42.2801 31.6585 42.2014 31.4686 42.0614 31.3285L33.1468 22.4129C32.8582 22.1253 32.3925 22.1224 32.101 22.405L33.8106 20.6942C33.9507 20.5542 34.1406 20.4756 34.3386 20.4756C34.5366 20.4756 34.7265 20.5542 34.8665 20.6942L43.7811 29.6089C43.9211 29.7489 43.9997 29.9388 43.9997 30.1368C43.9997 30.3349 43.921 30.5248 43.781 30.6648Z" fill="#FA954C"/>
<path d="M21.3729 20.9453C27.1568 20.9453 31.8456 16.2565 31.8456 10.4727C31.8456 4.68877 27.1568 0 21.3729 0C15.589 0 10.9003 4.68877 10.9003 10.4727C10.9003 16.2565 15.589 20.9453 21.3729 20.9453Z" fill="#FA954C"/>
<path d="M21.3729 18.3965C25.7491 18.3965 29.2967 14.8489 29.2967 10.4727C29.2967 6.09645 25.7491 2.54883 21.3729 2.54883C16.9967 2.54883 13.4491 6.09645 13.4491 10.4727C13.4491 14.8489 16.9967 18.3965 21.3729 18.3965Z" fill="#CED6CF"/>
<path d="M28.3025 6.62875L17.5288 17.4025C16.4632 16.8107 15.5483 15.9811 14.8553 14.9784L25.8784 3.95508C26.8812 4.64816 27.7107 5.56307 28.3025 6.62875ZM29.2889 10.1302C26.4259 13.0802 23.2179 16.3483 21.1041 18.392C20.2501 18.3635 19.43 18.2003 18.6653 17.9223L28.8222 7.76539C29.0981 8.52506 29.2555 9.32263 29.2889 10.1302Z" fill="#EAF6FF"/>
<path d="M24.9718 9.95939C24.9502 9.93339 24.9262 9.90958 24.8999 9.88829L22.1937 7.63985L21.7585 7.27813C21.6503 7.18802 21.5139 7.13867 21.373 7.13867C21.2321 7.13867 21.0957 7.18802 20.9874 7.27813L17.846 9.88829C17.7851 9.93897 17.7347 10.0012 17.6978 10.0713C17.6609 10.1414 17.6382 10.2182 17.6309 10.2971C17.6237 10.376 17.632 10.4556 17.6555 10.5313C17.679 10.607 17.7172 10.6774 17.7679 10.7383C17.8244 10.8067 17.8952 10.8617 17.9755 10.8993C18.0557 10.937 18.1433 10.9565 18.232 10.9563C18.3679 10.9563 18.5046 10.9109 18.6179 10.8172L18.7968 10.668V13.2031C18.7968 13.5359 19.0671 13.8063 19.3999 13.8063H23.3453C23.6788 13.8063 23.9492 13.5359 23.9492 13.2031V10.668L24.1203 10.8109L24.1281 10.8172C24.3843 11.0297 24.7648 10.9945 24.9781 10.7383C25.1695 10.5086 25.1609 10.1789 24.9718 9.95939ZM22.7421 12.5992H20.0038V9.70548C20.0038 9.6922 20.0031 9.6797 20.0015 9.66642L20.9804 8.85314L21.3726 8.52735L22.7437 9.66642C22.7429 9.6797 22.7421 9.6922 22.7421 9.70548V12.5992Z" fill="#FA954C"/>
<path d="M20.0038 12.5995H22.332L21.1249 13.8065H19.3999C19.0671 13.8065 18.7968 13.5362 18.7968 13.2034V11.037L20.0038 9.82998V12.5995ZM24.9718 9.95967L24.1203 10.8112L23.9492 10.9815L22.7421 12.1886V9.70576C22.7421 9.69248 22.7429 9.67998 22.7437 9.6667L21.3726 8.52764L20.9804 8.85342L22.1937 7.64014L24.8999 9.88857C24.9265 9.91045 24.9507 9.93389 24.9718 9.95967ZM23.9492 12.6386V13.2034C23.9492 13.5362 23.6788 13.8065 23.3453 13.8065H22.7812L23.9492 12.6386Z" fill="#CED6CF"/>
</g>
<defs>
<clipPath id="clip0_308_1274">
<rect width="40" height="40" fill="white"/>
</clipPath>
</defs>
</svg>
