<svg width="40" height="40" viewBox="0 0 40 40" fill="none" xmlns="http://www.w3.org/2000/svg">
<path d="M36.5218 33.5064C38.7715 31.0926 39.998 28.1085 39.998 24.9995C39.998 21.1093 38.0763 17.5862 34.9985 15.0864C34.9282 23.9996 26.5462 31.2488 16.2504 31.2488H9.28235C11.9774 35.6937 17.4534 38.7481 23.7496 38.7481H38.7481C39.2559 38.7481 39.7089 38.4434 39.9042 37.9747C40.0995 37.506 39.9902 36.967 39.6308 36.6155L36.5218 33.5064Z" fill="#FDC9A4"/>
<path d="M16.2504 1.25195C7.29036 1.25195 0.00203315 7.41539 0.00203315 15.0006C0.00203315 18.1096 1.22847 21.0859 3.47824 23.5075L0.369183 26.6166C0.00984487 26.9759 -0.099519 27.5149 0.0957736 27.9758C0.291066 28.4445 0.744145 28.7492 1.25191 28.7492H16.2504C25.2104 28.7492 32.4987 22.5857 32.4987 15.0006C32.4987 7.41539 25.2104 1.25195 16.2504 1.25195Z" fill="#FA954C"/>
<path d="M23.7496 11.251H8.75115C8.06372 11.251 7.50128 11.8134 7.50128 12.5008C7.50128 13.1883 8.06372 13.7507 8.75115 13.7507H23.7496C24.4371 13.7507 24.9995 13.1883 24.9995 12.5008C24.9995 11.8134 24.4371 11.251 23.7496 11.251ZM18.7501 16.2505H8.75115C8.06372 16.2505 7.50128 16.8129 7.50128 17.5003C7.50128 18.1878 8.06372 18.7502 8.75115 18.7502H18.7501C19.4376 18.7502 20 18.1878 20 17.5003C20 16.8129 19.4376 16.2505 18.7501 16.2505Z" fill="#FAFAFA"/>
</svg>
