<svg width="40" height="40" viewBox="0 0 40 40" fill="none" xmlns="http://www.w3.org/2000/svg">
<g clip-path="url(#clip0_308_1314)">
<path d="M23.0742 8.71034C22.7711 8.81536 22.4504 8.80054 22.186 8.64187L20.0381 7.35356C19.2484 6.88014 18.3276 6.65991 17.3682 6.69959C18.1606 5.41701 19.6387 4.81975 20.785 5.32618C21.0766 5.45504 21.3609 5.60069 21.6368 5.76297L23.4904 6.8545C23.826 7.05214 23.9923 7.43214 23.97 7.84336C23.9378 7.92046 23.8994 7.99599 23.8534 8.06956C23.6584 8.3843 23.3745 8.60626 23.0742 8.71034Z" fill="url(#paint0_linear_308_1314)"/>
<path d="M26.6587 5.5057L23.4665 4.51629C22.9935 4.36977 22.5137 4.24613 22.0288 4.14578C20.1303 3.75292 18.2443 4.87135 17.6659 6.72178C19.0583 6.44539 20.4979 6.52511 21.8512 6.95355L25.5608 8.13064C25.7784 8.19991 26.0077 8.22527 26.2352 8.20523C26.4627 8.1852 26.6839 8.12017 26.8861 8.01394C27.0871 7.90902 27.2654 7.76553 27.4108 7.59167C27.5563 7.41781 27.666 7.21699 27.7338 7.00068L27.7348 6.99747C27.8006 6.79025 27.7789 6.56241 27.6806 6.36853C27.5771 6.16337 27.4332 5.98121 27.2576 5.83296C27.082 5.6847 26.8783 5.5734 26.6587 5.5057Z" fill="url(#paint1_linear_308_1314)"/>
<path d="M28.8545 2.84314L24.5874 2.50737C23.9552 2.45774 23.3209 2.43858 22.6868 2.44996C20.2042 2.49466 18.1636 4.42376 17.9629 6.89866C19.6104 6.16745 21.4312 5.85223 23.257 6.00784L28.2233 6.43216C28.8347 6.48455 29.4114 6.28212 29.8461 5.91255C30.2769 5.54643 30.5692 5.01545 30.6194 4.40768L30.6198 4.40345C30.6448 4.11137 30.5382 3.82243 30.347 3.60015C29.9695 3.15994 29.4327 2.88764 28.8545 2.84314Z" fill="url(#paint2_linear_308_1314)"/>
<path d="M34.3268 29.8118C37.46 29.8118 40 27.2718 40 24.1386C40 21.0053 37.46 18.4653 34.3268 18.4653C31.1935 18.4653 28.6535 21.0053 28.6535 24.1386C28.6535 27.2718 31.1935 29.8118 34.3268 29.8118Z" fill="url(#paint3_linear_308_1314)"/>
<path d="M34.3268 28.5874C36.7837 28.5874 38.7755 26.5956 38.7755 24.1386C38.7755 21.6817 36.7837 19.6899 34.3268 19.6899C31.8698 19.6899 29.8781 21.6817 29.8781 24.1386C29.8781 26.5956 31.8698 28.5874 34.3268 28.5874Z" fill="url(#paint4_linear_308_1314)"/>
<path d="M34.7912 23.3725V21.9742C35.4138 22.022 35.5957 22.3285 35.9117 22.3285C36.3332 22.3285 36.5056 21.8018 36.5056 21.5432C36.5056 20.8824 35.3851 20.7291 34.7912 20.71V20.4706C34.7912 20.3365 34.6092 20.2119 34.4274 20.2119C34.2167 20.2119 34.0634 20.3365 34.0634 20.4706V20.7387C33.0481 20.8824 32.1479 21.4666 32.1479 22.683C32.1479 23.9089 33.1823 24.3207 34.0634 24.6559V26.2074C33.3546 26.0828 33.029 25.5178 32.6268 25.5178C32.2628 25.5178 31.9756 25.9966 31.9756 26.3223C31.9756 26.9352 32.9141 27.5291 34.0634 27.5674V27.8068C34.0634 27.9409 34.2167 28.0655 34.4274 28.0655C34.6094 28.0655 34.7913 27.9409 34.7913 27.8068V27.5291C35.9118 27.3471 36.6781 26.6288 36.6781 25.4412C36.678 24.1482 35.6628 23.698 34.7912 23.3725ZM34.1591 23.1426C33.7951 22.9894 33.5462 22.817 33.5462 22.5392C33.5462 22.3094 33.7281 22.0891 34.1591 22.003V23.1426ZM34.6955 26.1978V24.9144C35.0403 25.0772 35.2797 25.2784 35.2797 25.5944C35.2797 25.9391 35.0211 26.1212 34.6955 26.1978Z" fill="url(#paint5_linear_308_1314)"/>
<path d="M28.6536 24.1389C28.6536 27.2721 31.1936 29.812 34.3268 29.812C37.4601 29.812 40 27.272 40 24.1389C40 23.9491 39.9903 23.7616 39.9721 23.5767H28.6815C28.663 23.7635 28.6537 23.9511 28.6536 24.1389Z" fill="url(#paint6_linear_308_1314)"/>
<path d="M34.3268 29.8118C37.4601 29.8118 40.0001 27.2718 40.0001 24.1386C40.0001 21.0053 37.4601 18.4653 34.3268 18.4653C31.1936 18.4653 28.6536 21.0053 28.6536 24.1386C28.6536 27.2718 31.1936 29.8118 34.3268 29.8118Z" fill="url(#paint7_linear_308_1314)"/>
<path d="M38.5407 5.40763C30.6415 2.13877 22.6419 9.11171 14.7406 6.06292C14.3201 5.90065 13.8671 6.20622 13.8671 6.65688V19.7374C13.8671 20.1411 14.1103 20.5057 14.4833 20.66C22.3824 23.9289 30.382 16.9559 38.2834 20.0047C38.7039 20.167 39.1569 19.8614 39.1569 19.4107V6.33022C39.1569 5.92653 38.9137 5.56198 38.5407 5.40763Z" fill="url(#paint8_linear_308_1314)"/>
<path d="M37.8485 8.61763C37.7222 8.49136 37.5544 8.42234 37.3732 8.42234H37.3716C36.5379 8.42234 35.8595 7.7439 35.8595 6.91018C35.8595 6.83332 35.865 6.75645 35.8767 6.68116C35.912 6.449 35.8501 6.209 35.7065 6.02312C35.6346 5.93073 35.5447 5.85385 35.4422 5.7971C35.3398 5.74035 35.2269 5.70492 35.1104 5.69292C34.6955 5.65057 34.2626 5.62939 33.8242 5.62939C31.5222 5.62939 29.2148 6.18312 26.7724 6.769C24.3105 7.35959 21.7654 7.97057 19.1999 7.97057C18.9167 7.97057 18.4877 7.95802 18.1779 7.94704C17.7277 7.93057 17.3261 8.23253 17.2203 8.66234C17.1394 8.99062 16.9506 9.28224 16.6843 9.49045C16.4179 9.69865 16.0893 9.81139 15.7512 9.81057C15.7277 9.81057 15.7034 9.81057 15.6799 9.809C15.4979 9.80037 15.3183 9.86704 15.1865 9.99253C15.1219 10.0538 15.0705 10.1276 15.0354 10.2095C15.0003 10.2914 14.9824 10.3795 14.9826 10.4686V16.9855C14.9826 17.1612 15.0516 17.3266 15.1755 17.4506C15.3018 17.5768 15.4697 17.6459 15.6516 17.6459H15.6524C16.4861 17.6459 17.1646 18.3243 17.1646 19.158C17.1646 19.2349 17.1591 19.3117 17.1473 19.387C17.112 19.6192 17.174 19.8592 17.3175 20.0451C17.3895 20.1375 17.4794 20.2144 17.5818 20.2711C17.6842 20.3278 17.7971 20.3633 17.9136 20.3753C18.3285 20.4176 18.7614 20.4388 19.1999 20.4388C21.501 20.4388 23.8085 19.8851 26.2516 19.2992C28.7136 18.7086 31.2587 18.0976 33.8242 18.0976C33.9661 18.0976 34.1442 18.1008 34.3254 18.1055C34.5065 18.1102 34.6908 18.1157 34.8461 18.1212C35.2948 18.1368 35.6979 17.8357 35.8038 17.4059C35.8846 17.0776 36.0734 16.786 36.3398 16.5778C36.6061 16.3695 36.9347 16.2568 37.2728 16.2576C37.2963 16.2576 37.3206 16.2576 37.3442 16.2592C37.5261 16.267 37.7057 16.2012 37.8375 16.0757C37.9685 15.9502 38.0414 15.7816 38.0414 15.5996V9.08273C38.0414 8.90704 37.9724 8.74155 37.8485 8.61763ZM20.3387 10.6576H18.6759C18.2595 10.6576 17.9222 10.3196 17.9222 9.90312C17.9222 9.48665 18.2595 9.14939 18.6759 9.14939H20.3387C20.7552 9.14939 21.0924 9.48665 21.0924 9.90312C21.0924 10.3196 20.7552 10.6576 20.3387 10.6576ZM34.3481 16.9188H32.6854C32.2689 16.9188 31.9316 16.5816 31.9316 16.1651C31.9316 15.7486 32.2689 15.4106 32.6854 15.4106H34.3481C34.7646 15.4106 35.1018 15.7486 35.1018 16.1651C35.1018 16.5816 34.7646 16.9188 34.3481 16.9188Z" fill="url(#paint9_linear_308_1314)"/>
<path d="M13.8671 12.6373V19.7376C13.8671 20.1413 14.1103 20.5058 14.4833 20.6602C22.3824 23.9291 30.382 16.956 38.2834 20.0049C38.7039 20.1672 39.1569 19.8616 39.1569 19.4109V12.6372L13.8671 12.6373Z" fill="url(#paint10_linear_308_1314)"/>
<path d="M38.5407 5.40759C35.8953 4.31284 33.2387 4.36688 30.5782 4.80837V19.5085C33.1524 19.0812 35.723 19.0168 38.2834 20.0047C38.7039 20.167 39.1569 19.8614 39.1569 19.4106V6.33018C39.1569 5.92649 38.9137 5.56194 38.5407 5.40759Z" fill="url(#paint11_linear_308_1314)"/>
<path d="M26.2152 18.4655C29.0832 18.4655 31.4082 16.1405 31.4082 13.2725C31.4082 10.4045 29.0832 8.07959 26.2152 8.07959C23.3472 8.07959 21.0223 10.4045 21.0223 13.2725C21.0223 16.1405 23.3472 18.4655 26.2152 18.4655Z" fill="url(#paint12_linear_308_1314)"/>
<path d="M14.4833 20.66C20.4091 23.1122 26.3914 19.8007 32.3464 19.2802L24.7728 11.7065H13.8671V19.7374C13.8671 20.1411 14.1103 20.5056 14.4833 20.66Z" fill="url(#paint13_linear_308_1314)"/>
<path d="M4.45752 6.87753V14.7873C4.45751 14.9992 4.51619 15.2068 4.62704 15.3873C4.7379 15.5678 4.89659 15.7141 5.08552 15.8098L7.67791 17.1243C8.73132 17.6592 9.93399 17.8516 11.093 17.6232C11.1469 17.613 11.2009 17.6013 11.2549 17.5887C11.2635 17.5864 11.272 17.5848 11.2807 17.5825C12.216 17.3682 14.8662 16.2046 15.904 15.7408C16.2081 15.6047 16.5225 15.4921 16.8463 15.4139C18.7503 14.9511 20.7298 14.8893 22.659 15.2325C23.6295 15.4046 24.5757 14.915 25.0066 14.0658C25.0696 13.9416 25.1206 13.8117 25.1591 13.6778C25.5016 12.4892 24.7963 11.2481 23.5974 10.9416C21.5079 10.4073 19.3737 10.0664 17.2217 9.92342L17.0942 9.86396C16.6305 9.64734 16.539 9.16561 16.8917 8.79494C18.9124 6.6671 19.6311 6.28389 21.4759 5.47683C23.6835 4.51259 26.157 4.28898 28.4773 4.93565C28.5633 4.9591 28.6494 4.98412 28.7345 5.00992L30.7099 5.68012C31.9306 6.05157 33.2257 5.35949 33.5932 4.13722C33.9607 2.92043 33.271 1.64098 32.0534 1.27973L30.7709 0.848827C25.5618 -0.697918 19.9391 -0.11533 15.1454 2.47008L12.0994 4.14279L10.1858 5.2173C9.54938 5.57493 8.82757 5.75254 8.09783 5.7311H5.60395C4.97077 5.73102 4.45752 6.24436 4.45752 6.87753Z" fill="url(#paint14_linear_308_1314)"/>
<path d="M16.6815 9.34521C16.7052 9.55565 16.8456 9.74804 17.0941 9.86412L17.2215 9.92357C19.3735 10.0665 21.5078 10.4074 23.5973 10.9418C24.7961 11.2484 25.5015 12.4894 25.1589 13.678C25.1204 13.8118 25.0693 13.9417 25.0065 14.0659C24.5756 14.9152 23.6294 15.4047 22.6589 15.2327C20.7297 14.8895 18.7502 14.9513 16.8461 15.4141C16.5224 15.4923 16.208 15.6049 15.9038 15.741C14.8661 16.2047 12.2158 17.3684 11.2805 17.5826C11.2719 17.585 11.2633 17.5865 11.2547 17.5889C11.2007 17.6015 11.1468 17.6131 11.0928 17.6233C9.93383 17.8516 8.73109 17.6593 7.67776 17.1244L5.08552 15.8099C4.89659 15.7141 4.7379 15.5679 4.62704 15.3874C4.51619 15.2069 4.45751 14.9992 4.45752 14.7874V9.34521H16.6815Z" fill="url(#paint15_linear_308_1314)"/>
<path d="M16.1699 1.95508C15.8237 2.11724 15.482 2.28899 15.1453 2.47014L12.0994 4.14284L10.1858 5.21735C9.54938 5.57498 8.82757 5.7526 8.09783 5.73116H5.60395C4.97077 5.73116 4.45752 6.24441 4.45752 6.87759V14.7874C4.45751 14.9992 4.51619 15.2069 4.62704 15.3874C4.7379 15.5679 4.89659 15.7141 5.08552 15.8099L7.67791 17.1243C8.73125 17.6592 9.93399 17.8516 11.093 17.6232C11.1469 17.613 11.2009 17.6014 11.2549 17.5888C11.2635 17.5865 11.272 17.5849 11.2807 17.5825C12.216 17.3683 14.8662 16.2046 15.904 15.7409C15.9917 15.7017 16.0806 15.665 16.17 15.6299V1.95508H16.1699Z" fill="url(#paint16_linear_308_1314)"/>
<path d="M7.47681 18.0558H5.49689C4.92285 18.0558 4.45752 17.5905 4.45752 17.0165V5.71222C4.45752 5.13819 4.92285 4.67285 5.49689 4.67285H7.47681C8.05085 4.67285 8.51619 5.13819 8.51619 5.71222V17.0164C8.51619 17.5905 8.05085 18.0558 7.47681 18.0558Z" fill="url(#paint17_linear_308_1314)"/>
<path d="M7.47681 18.0558H5.49689C4.92285 18.0558 4.45752 17.5905 4.45752 17.0165V5.71222C4.45752 5.13819 4.92285 4.67285 5.49689 4.67285H7.47681C8.05085 4.67285 8.51619 5.13819 8.51619 5.71222V17.0164C8.51619 17.5905 8.05085 18.0558 7.47681 18.0558Z" fill="url(#paint18_linear_308_1314)"/>
<path d="M4.45752 9.3457V17.0162C4.45752 17.5903 4.92285 18.0556 5.49689 18.0556H7.47681C8.05085 18.0556 8.51619 17.5903 8.51619 17.0162V9.3457H4.45752Z" fill="url(#paint19_linear_308_1314)"/>
<path d="M21.3501 27.2279C24.4834 27.2279 27.0234 24.6879 27.0234 21.5546C27.0234 18.4214 24.4834 15.8813 21.3501 15.8813C18.2169 15.8813 15.6769 18.4214 15.6769 21.5546C15.6769 24.6879 18.2169 27.2279 21.3501 27.2279Z" fill="url(#paint20_linear_308_1314)"/>
<path d="M21.3501 26.0034C23.8071 26.0034 25.7988 24.0116 25.7988 21.5547C25.7988 19.0977 23.8071 17.106 21.3501 17.106C18.8932 17.106 16.9014 19.0977 16.9014 21.5547C16.9014 24.0116 18.8932 26.0034 21.3501 26.0034Z" fill="url(#paint21_linear_308_1314)"/>
<path d="M21.8146 20.7885V19.3902C22.4372 19.438 22.6191 19.7446 22.9351 19.7446C23.3566 19.7446 23.529 19.2178 23.529 18.9592C23.529 18.2984 22.4085 18.1451 21.8146 18.126V17.8866C21.8146 17.7525 21.6326 17.6279 21.4507 17.6279C21.2401 17.6279 21.0867 17.7525 21.0867 17.8866V18.1547C20.0715 18.2984 19.1713 18.8826 19.1713 20.099C19.1713 21.3249 20.2056 21.7367 21.0867 22.0719V23.6234C20.378 23.4988 20.0524 22.9338 19.6502 22.9338C19.2862 22.9338 18.999 23.4126 18.999 23.7383C18.999 24.3512 19.9375 24.9451 21.0868 24.9834V25.2228C21.0868 25.3569 21.2401 25.4815 21.4508 25.4815C21.6328 25.4815 21.8146 25.3569 21.8146 25.2228V24.9451C22.9352 24.7631 23.7015 24.0448 23.7015 22.8573C23.7013 21.5642 22.6861 21.114 21.8146 20.7885ZM21.1825 20.5586C20.8185 20.4054 20.5696 20.233 20.5696 19.9552C20.5696 19.7254 20.7515 19.5051 21.1825 19.419V20.5586ZM21.7189 23.6138V22.3304C22.0637 22.4932 22.3031 22.6944 22.3031 23.0104C22.303 23.3551 22.0445 23.5372 21.7189 23.6138Z" fill="url(#paint22_linear_308_1314)"/>
<path d="M15.6769 21.5544C15.6769 24.6876 18.2169 27.2276 21.3502 27.2276C24.4835 27.2276 27.0234 24.6876 27.0234 21.5544C27.0234 21.3646 27.0136 21.1771 26.9955 20.9922H15.7049C15.6864 21.179 15.677 21.3666 15.6769 21.5544Z" fill="url(#paint23_linear_308_1314)"/>
<path d="M26.512 40.0003C29.6453 40.0003 32.1853 37.4603 32.1853 34.3271C32.1853 31.1938 29.6453 28.6538 26.512 28.6538C23.3787 28.6538 20.8387 31.1938 20.8387 34.3271C20.8387 37.4603 23.3787 40.0003 26.512 40.0003Z" fill="url(#paint24_linear_308_1314)"/>
<path d="M26.512 38.7753C28.969 38.7753 30.9607 36.7836 30.9607 34.3266C30.9607 31.8697 28.969 29.8779 26.512 29.8779C24.055 29.8779 22.0633 31.8697 22.0633 34.3266C22.0633 36.7836 24.055 38.7753 26.512 38.7753Z" fill="url(#paint25_linear_308_1314)"/>
<path d="M26.9764 33.5605V32.1622C27.599 32.21 27.7809 32.5165 28.0969 32.5165C28.5184 32.5165 28.6908 31.9898 28.6908 31.7312C28.6908 31.0704 27.5703 30.9171 26.9764 30.898V30.6586C26.9764 30.5244 26.7944 30.3999 26.6125 30.3999C26.4019 30.3999 26.2485 30.5244 26.2485 30.6586V30.9266C25.2333 31.0704 24.3331 31.6546 24.3331 32.871C24.3331 34.0968 25.3674 34.5087 26.2485 34.8439V36.3954C25.5398 36.2708 25.2142 35.7058 24.812 35.7058C24.448 35.7058 24.1608 36.1846 24.1608 36.5103C24.1608 37.1232 25.0993 37.7171 26.2486 37.7554V37.9948C26.2486 38.1289 26.4019 38.2535 26.6126 38.2535C26.7946 38.2535 26.9765 38.1289 26.9765 37.9948V37.7171C28.097 37.5351 28.8633 36.8168 28.8633 35.6292C28.8632 34.3362 27.848 33.886 26.9764 33.5605ZM26.3444 33.3306C25.9804 33.1774 25.7314 33.005 25.7314 32.7272C25.7314 32.4974 25.9134 32.2771 26.3444 32.191V33.3306ZM26.8807 36.3857V35.1023C27.2255 35.2652 27.4649 35.4663 27.4649 35.7823C27.4649 36.1271 27.2063 36.3092 26.8807 36.3857Z" fill="url(#paint26_linear_308_1314)"/>
<path d="M20.8387 34.3268C20.8387 37.4601 23.3787 40 26.512 40C29.6453 40 32.1852 37.46 32.1852 34.3268C32.1852 34.137 32.1755 33.9496 32.1573 33.7646H20.8667C20.8482 33.9515 20.8388 34.1391 20.8387 34.3268Z" fill="url(#paint27_linear_308_1314)"/>
<path d="M5.11788 18.8106H1.15663C0.517882 18.8106 0 18.2928 0 17.654V5.0746C0 4.43577 0.517882 3.91797 1.15663 3.91797H5.11788C5.75663 3.91797 6.27451 4.43585 6.27451 5.0746V17.654C6.27451 18.2928 5.75663 18.8106 5.11788 18.8106Z" fill="#F97316"/>
<path d="M0 9.11816V17.654C0 18.2928 0.517882 18.8106 1.15663 18.8106H5.11788C5.75671 18.8106 6.27451 18.2928 6.27451 17.654V9.11816H0Z" fill="url(#paint28_linear_308_1314)"/>
</g>
<defs>
<linearGradient id="paint0_linear_308_1314" x1="20.7167" y1="8.80381" x2="20.795" y2="7.21366" gradientUnits="userSpaceOnUse">
<stop stop-color="#FFDFCF"/>
<stop offset="1" stop-color="#FFA78F"/>
</linearGradient>
<linearGradient id="paint1_linear_308_1314" x1="22.7433" y1="8.35921" x2="22.8309" y2="4.63856" gradientUnits="userSpaceOnUse">
<stop stop-color="#FFDFCF"/>
<stop offset="1" stop-color="#FFA78F"/>
</linearGradient>
<linearGradient id="paint2_linear_308_1314" x1="24.6256" y1="7.07939" x2="23.9285" y2="2.80846" gradientUnits="userSpaceOnUse">
<stop stop-color="#FFDFCF"/>
<stop offset="1" stop-color="#FFA78F"/>
</linearGradient>
<linearGradient id="paint3_linear_308_1314" x1="32.1388" y1="21.9506" x2="41.0088" y2="30.8205" gradientUnits="userSpaceOnUse">
<stop stop-color="#FEF48B"/>
<stop offset="0.146" stop-color="#FDF07E"/>
<stop offset="0.416" stop-color="#FCE55C"/>
<stop offset="0.778" stop-color="#FBD325"/>
<stop offset="1" stop-color="#FAC600"/>
</linearGradient>
<linearGradient id="paint4_linear_308_1314" x1="28.8545" y1="18.6663" x2="39.9188" y2="29.7306" gradientUnits="userSpaceOnUse">
<stop stop-color="#FAC600" stop-opacity="0"/>
<stop offset="0.408" stop-color="#EFBD01" stop-opacity="0.408"/>
<stop offset="1" stop-color="#D7AA02"/>
</linearGradient>
<linearGradient id="paint5_linear_308_1314" x1="16.4685" y1="10.03" x2="37.1352" y2="26.2608" gradientUnits="userSpaceOnUse">
<stop stop-color="#FAC600" stop-opacity="0"/>
<stop offset="0.408" stop-color="#EFBD01" stop-opacity="0.408"/>
<stop offset="1" stop-color="#D7AA02"/>
</linearGradient>
<linearGradient id="paint6_linear_308_1314" x1="34.3268" y1="25.3512" x2="34.3268" y2="29.9014" gradientUnits="userSpaceOnUse">
<stop stop-color="#FAC600" stop-opacity="0"/>
<stop offset="0.408" stop-color="#EFBD01" stop-opacity="0.408"/>
<stop offset="1" stop-color="#D7AA02"/>
</linearGradient>
<linearGradient id="paint7_linear_308_1314" x1="34.3268" y1="22.1959" x2="34.3268" y2="19.3932" gradientUnits="userSpaceOnUse">
<stop stop-color="#FAC600" stop-opacity="0"/>
<stop offset="0.408" stop-color="#EFBD01" stop-opacity="0.408"/>
<stop offset="1" stop-color="#D7AA02"/>
</linearGradient>
<linearGradient id="paint8_linear_308_1314" x1="23.7147" y1="5.50269" x2="29.5165" y2="21.1228" gradientUnits="userSpaceOnUse">
<stop stop-color="#BBEC6C"/>
<stop offset="1" stop-color="#78A91F"/>
</linearGradient>
<linearGradient id="paint9_linear_308_1314" x1="22.2581" y1="-0.234528" x2="32.3497" y2="31.2427" gradientUnits="userSpaceOnUse">
<stop stop-color="#78A91F" stop-opacity="0"/>
<stop offset="1" stop-color="#026841"/>
</linearGradient>
<linearGradient id="paint10_linear_308_1314" x1="26.5772" y1="18.3773" x2="26.6817" y2="21.8806" gradientUnits="userSpaceOnUse">
<stop stop-color="#78A91F" stop-opacity="0"/>
<stop offset="1" stop-color="#026841"/>
</linearGradient>
<linearGradient id="paint11_linear_308_1314" x1="36.9229" y1="12.281" x2="40.526" y2="12.281" gradientUnits="userSpaceOnUse">
<stop stop-color="#78A91F" stop-opacity="0"/>
<stop offset="1" stop-color="#026841"/>
</linearGradient>
<linearGradient id="paint12_linear_308_1314" x1="22.4352" y1="2.77237" x2="29.0777" y2="21.2237" gradientUnits="userSpaceOnUse">
<stop stop-color="#78A91F" stop-opacity="0"/>
<stop offset="1" stop-color="#026841"/>
</linearGradient>
<linearGradient id="paint13_linear_308_1314" x1="22.8642" y1="18.7843" x2="20.7204" y2="11.7255" gradientUnits="userSpaceOnUse">
<stop stop-color="#026841" stop-opacity="0"/>
<stop offset="1" stop-color="#026841"/>
</linearGradient>
<linearGradient id="paint14_linear_308_1314" x1="15.8301" y1="1.86898" x2="22.7125" y2="17.0101" gradientUnits="userSpaceOnUse">
<stop stop-color="#FFDFCF"/>
<stop offset="1" stop-color="#FFA78F"/>
</linearGradient>
<linearGradient id="paint15_linear_308_1314" x1="14.8516" y1="13.2944" x2="14.8516" y2="17.6765" gradientUnits="userSpaceOnUse">
<stop stop-color="#F89580" stop-opacity="0"/>
<stop offset="0.286" stop-color="#EE8E79" stop-opacity="0.287"/>
<stop offset="0.762" stop-color="#D57B65" stop-opacity="0.765"/>
<stop offset="0.997" stop-color="#C5715A"/>
</linearGradient>
<linearGradient id="paint16_linear_308_1314" x1="11.4118" y1="9.83649" x2="7.89446" y2="9.83649" gradientUnits="userSpaceOnUse">
<stop stop-color="#F89580" stop-opacity="0"/>
<stop offset="0.286" stop-color="#EE8E79" stop-opacity="0.287"/>
<stop offset="0.762" stop-color="#D57B65" stop-opacity="0.765"/>
<stop offset="0.997" stop-color="#C5715A"/>
</linearGradient>
<linearGradient id="paint17_linear_308_1314" x1="6.33987" y1="11.3644" x2="8.35564" y2="11.3644" gradientUnits="userSpaceOnUse">
<stop stop-color="#FFFDF1"/>
<stop offset="1" stop-color="#FFF5C6"/>
</linearGradient>
<linearGradient id="paint18_linear_308_1314" x1="7.08497" y1="11.3644" x2="5.6994" y2="11.3644" gradientUnits="userSpaceOnUse">
<stop stop-color="#7B7F68" stop-opacity="0"/>
<stop offset="0.169" stop-color="#7B7F68" stop-opacity="0.17"/>
<stop offset="0.403" stop-color="#7B7F68" stop-opacity="0.4"/>
<stop offset="0.675" stop-color="#7B7F68" stop-opacity="0.68"/>
<stop offset="0.974" stop-color="#EA4842" stop-opacity="0.974"/>
<stop offset="1" stop-color="#E94444"/>
</linearGradient>
<linearGradient id="paint19_linear_308_1314" x1="6.48685" y1="15.3986" x2="6.48685" y2="19.662" gradientUnits="userSpaceOnUse">
<stop stop-color="#7B7F68" stop-opacity="0"/>
<stop offset="0.169" stop-color="#7B7F68" stop-opacity="0.17"/>
<stop offset="0.403" stop-color="#7B7F68" stop-opacity="0.4"/>
<stop offset="0.675" stop-color="#7B7F68" stop-opacity="0.68"/>
<stop offset="0.974" stop-color="#7B7F68" stop-opacity="0.97"/>
<stop offset="1" stop-color="#7B7F68"/>
</linearGradient>
<linearGradient id="paint20_linear_308_1314" x1="19.1621" y1="19.3665" x2="28.0322" y2="28.2366" gradientUnits="userSpaceOnUse">
<stop stop-color="#FEF48B"/>
<stop offset="0.146" stop-color="#FDF07E"/>
<stop offset="0.416" stop-color="#FCE55C"/>
<stop offset="0.778" stop-color="#FBD325"/>
<stop offset="1" stop-color="#FAC600"/>
</linearGradient>
<linearGradient id="paint21_linear_308_1314" x1="15.8779" y1="16.0823" x2="26.9421" y2="27.1466" gradientUnits="userSpaceOnUse">
<stop stop-color="#FAC600" stop-opacity="0"/>
<stop offset="0.408" stop-color="#EFBD01" stop-opacity="0.408"/>
<stop offset="1" stop-color="#D7AA02"/>
</linearGradient>
<linearGradient id="paint22_linear_308_1314" x1="3.4919" y1="7.44589" x2="24.1585" y2="23.6768" gradientUnits="userSpaceOnUse">
<stop stop-color="#FAC600" stop-opacity="0"/>
<stop offset="0.408" stop-color="#EFBD01" stop-opacity="0.408"/>
<stop offset="1" stop-color="#D7AA02"/>
</linearGradient>
<linearGradient id="paint23_linear_308_1314" x1="21.3501" y1="22.7667" x2="21.3501" y2="27.3169" gradientUnits="userSpaceOnUse">
<stop stop-color="#FAC600" stop-opacity="0"/>
<stop offset="0.408" stop-color="#EFBD01" stop-opacity="0.408"/>
<stop offset="1" stop-color="#D7AA02"/>
</linearGradient>
<linearGradient id="paint24_linear_308_1314" x1="24.324" y1="32.139" x2="33.194" y2="41.009" gradientUnits="userSpaceOnUse">
<stop stop-color="#FEF48B"/>
<stop offset="0.146" stop-color="#FDF07E"/>
<stop offset="0.416" stop-color="#FCE55C"/>
<stop offset="0.778" stop-color="#FBD325"/>
<stop offset="1" stop-color="#FAC600"/>
</linearGradient>
<linearGradient id="paint25_linear_308_1314" x1="21.0397" y1="28.8543" x2="32.1039" y2="39.9186" gradientUnits="userSpaceOnUse">
<stop stop-color="#FAC600" stop-opacity="0"/>
<stop offset="0.408" stop-color="#EFBD01" stop-opacity="0.408"/>
<stop offset="1" stop-color="#D7AA02"/>
</linearGradient>
<linearGradient id="paint26_linear_308_1314" x1="8.65378" y1="20.2179" x2="29.3204" y2="36.4487" gradientUnits="userSpaceOnUse">
<stop stop-color="#FAC600" stop-opacity="0"/>
<stop offset="0.408" stop-color="#EFBD01" stop-opacity="0.408"/>
<stop offset="1" stop-color="#D7AA02"/>
</linearGradient>
<linearGradient id="paint27_linear_308_1314" x1="26.512" y1="35.5392" x2="26.512" y2="40.0894" gradientUnits="userSpaceOnUse">
<stop stop-color="#FAC600" stop-opacity="0"/>
<stop offset="0.408" stop-color="#EFBD01" stop-opacity="0.408"/>
<stop offset="1" stop-color="#D7AA02"/>
</linearGradient>
<linearGradient id="paint28_linear_308_1314" x1="3.13725" y1="15.5048" x2="3.13725" y2="18.3573" gradientUnits="userSpaceOnUse">
<stop stop-color="#433F43" stop-opacity="0"/>
<stop offset="1" stop-color="#1A1A1A"/>
</linearGradient>
<clipPath id="clip0_308_1314">
<rect width="40" height="40" fill="white"/>
</clipPath>
</defs>
</svg>
