<svg width="48" height="48" viewBox="0 0 48 48" fill="none" xmlns="http://www.w3.org/2000/svg">
<g clip-path="url(#clip0_935_2288)">
<path d="M45.9746 35.8723H2.5607C2.47059 35.8723 2.38417 35.8365 2.32046 35.7728C2.25674 35.7091 2.22095 35.6226 2.22095 35.5325V31.8684H48V33.8469C48 34.9655 47.0932 35.8723 45.9746 35.8723Z" fill="#2D5871"/>
<path d="M47.9986 33.5793H30.64V16.9888H42.5176C42.8539 16.9888 43.1853 17.07 43.4835 17.2255C43.7817 17.3811 44.0379 17.6064 44.2303 17.8822L47.623 22.745C47.8675 23.0955 47.9986 23.5126 47.9986 23.94V33.5793Z" fill="#FF4C4C"/>
<path d="M47.623 22.745L44.2303 17.8822C44.0379 17.6064 43.7817 17.3811 43.4835 17.2256C43.1853 17.07 42.8539 16.9888 42.5176 16.9888H38.202C38.5383 16.9888 38.8697 17.07 39.1679 17.2255C39.4661 17.3811 39.7223 17.6064 39.9147 17.8822L43.3074 22.745C43.5519 23.0955 43.683 23.5125 43.683 23.9399V30.8586C43.683 31.0575 43.604 31.2483 43.4633 31.3889C43.3227 31.5296 43.1319 31.6086 42.933 31.6086H30.64V33.5793H47.9986V23.94C47.9986 23.5126 47.8675 23.0955 47.623 22.745Z" fill="#F33939"/>
<path d="M35.519 26.2716V20.216C35.519 20.1317 35.5526 20.0508 35.6122 19.9911C35.6719 19.9315 35.7528 19.8979 35.8371 19.8979H41.9235C42.0274 19.8979 42.1249 19.9488 42.1844 20.034L45.0323 24.1159C45.0695 24.1693 45.0895 24.2329 45.0895 24.2979V26.2715C45.0895 26.3559 45.056 26.4368 44.9963 26.4965C44.9367 26.5561 44.8558 26.5896 44.7714 26.5896H35.8371C35.7954 26.5897 35.754 26.5815 35.7154 26.5655C35.6768 26.5495 35.6417 26.5261 35.6122 26.4966C35.5826 26.467 35.5592 26.432 35.5432 26.3934C35.5273 26.3548 35.519 26.3134 35.519 26.2716Z" fill="#21D8DE"/>
<path d="M40.5366 39.2558C42.8452 39.2558 44.7167 37.3843 44.7167 35.0756C44.7167 32.767 42.8452 30.8955 40.5366 30.8955C38.228 30.8955 36.3564 32.767 36.3564 35.0756C36.3564 37.3843 38.228 39.2558 40.5366 39.2558Z" fill="#1D4859"/>
<path d="M40.5368 36.6284C39.6807 36.6284 38.9843 35.9319 38.9843 35.0758C38.9843 34.2198 39.6807 33.5232 40.5368 33.5232C41.393 33.5232 42.0894 34.2197 42.0894 35.0758C42.0894 35.9319 41.393 36.6284 40.5368 36.6284Z" fill="#E1EFFB"/>
<path d="M33.0834 33.5795H0.633469C0.465462 33.5795 0.304337 33.5127 0.185539 33.3939C0.0667403 33.2751 0 33.114 0 32.946L0 9.37761C0 9.2096 0.0667403 9.04848 0.185539 8.92968C0.304337 8.81088 0.465462 8.74414 0.633469 8.74414H32.45C32.618 8.74414 32.7791 8.81088 32.8979 8.92968C33.0167 9.04848 33.0834 9.2096 33.0834 9.37761V33.5795Z" fill="#FFB125"/>
<path d="M32.45 8.74414H28.7678V29.7843C28.7678 30.7919 27.951 31.6087 26.9434 31.6087H0V32.946C0 33.0292 0.0163852 33.1115 0.0482199 33.1884C0.0800547 33.2653 0.126716 33.3351 0.185539 33.3939C0.244362 33.4527 0.314195 33.4994 0.391051 33.5312C0.467907 33.5631 0.55028 33.5795 0.633469 33.5795H33.0834V9.37761C33.0834 9.2096 33.0167 9.04848 32.8979 8.92968C32.7791 8.81088 32.618 8.74414 32.45 8.74414Z" fill="#FF901D"/>
<path d="M16.021 20.2474C15.8246 20.2477 15.6347 20.1773 15.4858 20.0493L10.1344 15.4606L4.78296 20.0493C4.70095 20.1196 4.60588 20.1731 4.50319 20.2067C4.40051 20.2402 4.29221 20.2533 4.18449 20.245C4.07676 20.2367 3.97172 20.2073 3.87537 20.1585C3.77901 20.1096 3.69322 20.0422 3.6229 19.9602C3.55257 19.8782 3.49909 19.7831 3.4655 19.6804C3.43192 19.5777 3.41889 19.4694 3.42716 19.3617C3.43543 19.254 3.46484 19.149 3.5137 19.0526C3.56257 18.9562 3.62994 18.8705 3.71196 18.8001L9.5989 13.7522C9.748 13.6243 9.93796 13.554 10.1344 13.554C10.3308 13.554 10.5208 13.6243 10.6699 13.7522L16.5568 18.8001C16.6845 18.9096 16.7755 19.0555 16.8177 19.2182C16.8599 19.381 16.8512 19.5527 16.7928 19.7104C16.7345 19.868 16.6292 20.004 16.4912 20.1C16.3532 20.1961 16.1891 20.2475 16.021 20.2474Z" fill="white"/>
<path d="M14.7439 20.9504L10.4724 17.2877C10.3783 17.207 10.2584 17.1626 10.1344 17.1626C10.0103 17.1626 9.89043 17.207 9.79629 17.2877L5.52476 20.9505C5.4679 20.9992 5.42226 21.0597 5.39096 21.1278C5.35966 21.1958 5.34346 21.2698 5.34344 21.3447V26.5952C5.34344 26.7329 5.39816 26.865 5.49557 26.9624C5.59297 27.0598 5.72507 27.1146 5.86282 27.1146H8.69557V22.5471C8.69557 22.4433 8.73681 22.3437 8.81021 22.2703C8.88361 22.1969 8.98317 22.1557 9.08698 22.1557H11.1817C11.2855 22.1557 11.3851 22.1969 11.4585 22.2703C11.5319 22.3437 11.5731 22.4433 11.5731 22.5471V27.1146H14.4059C14.5436 27.1145 14.6757 27.0598 14.7731 26.9624C14.8705 26.865 14.9252 26.7329 14.9252 26.5952V21.3447C14.9252 21.2698 14.909 21.1958 14.8777 21.1277C14.8464 21.0597 14.8008 20.9992 14.7439 20.9504Z" fill="white"/>
<path d="M9.51283 39.2558C11.8214 39.2558 13.693 37.3843 13.693 35.0756C13.693 32.767 11.8214 30.8955 9.51283 30.8955C7.20421 30.8955 5.3327 32.767 5.3327 35.0756C5.3327 37.3843 7.20421 39.2558 9.51283 39.2558Z" fill="#1D4859"/>
<path d="M9.51274 36.6284C8.65661 36.6284 7.96014 35.9319 7.96014 35.0758C7.96014 34.2198 8.65661 33.5232 9.51274 33.5232C10.3689 33.5232 11.0653 34.2197 11.0653 35.0758C11.0653 35.9319 10.3689 36.6284 9.51274 36.6284Z" fill="#E1EFFB"/>
<path d="M22.7717 25.9632L26.9183 23.1485C26.9436 23.1313 26.9642 23.1089 26.9784 23.0831C26.9926 23.0573 27 23.0289 27 23C27 22.9711 26.9926 22.9427 26.9784 22.9169C26.9642 22.8911 26.9436 22.8687 26.9183 22.8515L22.7717 20.0368C22.6382 19.9462 22.4487 20.0333 22.4487 20.1853V21.6746H19.2024C19.1487 21.6746 19.0972 21.6941 19.0593 21.7288C19.0213 21.7635 19 21.8105 19 21.8596V24.1405C19 24.1896 19.0213 24.2366 19.0593 24.2713C19.0972 24.306 19.1487 24.3255 19.2024 24.3255H22.4487V25.8148C22.4487 25.9667 22.6382 26.0538 22.7717 25.9632Z" fill="white"/>
</g>
<defs>
<clipPath id="clip0_935_2288">
<rect width="48" height="48" fill="white"/>
</clipPath>
</defs>
</svg>
