<svg width="48" height="48" viewBox="0 0 48 48" fill="none" xmlns="http://www.w3.org/2000/svg">
<path d="M9.75 14.25L7.5675 18.615L7.5225 18.5925C6.255 18.27 3.75 17.43 3.75 15.75C3.75 13.5 1.5 11.25 1.5 11.25C3 10.395 5.25 11.25 6 12.75C6.75 14.25 9.75 14.25 9.75 14.25Z" fill="#FF9700"/>
<path d="M4.7175 24.6975C4.65349 24.6977 4.59051 24.6814 4.53457 24.6503C4.47862 24.6192 4.43156 24.5743 4.39788 24.5199C4.3642 24.4654 4.34501 24.4033 4.34214 24.3393C4.33928 24.2754 4.35283 24.2118 4.3815 24.1545L9.414 14.082C9.45846 13.993 9.53646 13.9253 9.63084 13.8938C9.72521 13.8623 9.82824 13.8696 9.91725 13.914C10.0063 13.9585 10.074 14.0365 10.1055 14.1309C10.137 14.2253 10.1297 14.3283 10.0853 14.4173L5.05275 24.4898C5.02168 24.5521 4.97386 24.6046 4.91465 24.6413C4.85543 24.678 4.78717 24.6975 4.7175 24.6975Z" fill="#6871D8"/>
<path d="M6.135 29.5575L5.625 32.5095L2.715 31.2675L2.25 30L1.2375 27.4575C0.922499 26.6925 0.959999 25.8225 1.335 25.0875C1.51766 24.7162 1.80066 24.4035 2.15193 24.1848C2.5032 23.9661 2.9087 23.8501 3.3225 23.85C3.6 23.85 3.885 23.9025 4.155 24.015C4.3575 24.0975 4.545 24.195 4.7175 24.3225C5.025 24.525 5.2875 24.7875 5.4975 25.095C5.82 25.5675 6 26.1375 6 26.7375V28.95C6 29.145 6.0375 29.3475 6.12 29.5275L6.135 29.5575ZM30.4875 12.75H30.2625C29.7075 12.75 29.25 13.2075 29.25 13.7625V10.47C24.66 11.1225 21.75 7.5 21.75 7.5C21.0975 9.4575 18.75 10.47 18.75 10.47V13.7625C18.75 13.2075 18.2925 12.75 17.7375 12.75H17.5125C16.9575 12.75 16.5 13.2075 16.5 13.7625V16.2375C16.5 16.7925 16.9575 17.25 17.5125 17.25H17.7375C18.2925 17.25 18.75 16.7925 18.75 16.2375V15.78C18.75 17.22 19.3425 18.525 20.295 19.47C20.73 19.905 21.2475 20.265 21.825 20.52C21.885 22.155 21.7275 25.215 19.7775 25.4775L23.565 29.685C23.8275 29.8725 24.1725 29.8725 24.435 29.685L28.2225 25.4775C26.2725 25.215 26.115 22.155 26.175 20.52C26.7525 20.265 27.27 19.905 27.705 19.47C28.6575 18.525 29.25 17.22 29.25 15.78V16.2375C29.25 16.7925 29.7075 17.25 30.2625 17.25H30.4875C31.0425 17.25 31.5 16.7925 31.5 16.2375V13.7625C31.5 13.2075 31.0425 12.75 30.4875 12.75ZM46.9725 26.3775C46.9725 26.745 46.905 27.1125 46.7625 27.4575L45.75 30L45.285 31.2675L43.2517 32.5095L41.865 29.5575L41.88 29.5275C41.9625 29.3475 42 29.145 42 28.95V26.7375C41.9982 26.1508 42.1733 25.5773 42.5025 25.0916C42.8316 24.6059 43.2994 24.2308 43.845 24.015C43.8675 24.0075 43.8975 23.9925 43.92 23.985C44.433 23.7983 44.9969 23.8076 45.5035 24.011C46.01 24.2145 46.4237 24.5978 46.665 25.0875C46.8675 25.4925 46.9725 25.935 46.9725 26.3775Z" fill="#FFD5C2"/>
<path d="M40.6875 16.4401L43.92 23.9851C43.8975 23.9926 43.8675 24.0076 43.845 24.0151C43.3672 24.204 42.9478 24.5157 42.6291 24.9187C42.3104 25.3216 42.1037 25.8016 42.03 26.3101L34.3425 22.7251C34.1072 22.6159 33.9017 22.4517 33.7433 22.2462C33.585 22.0407 33.4785 21.8002 33.4328 21.5448C33.3872 21.2895 33.4038 21.0269 33.4812 20.7793C33.5586 20.5317 33.6946 20.3064 33.8775 20.1226L34.41 19.5901L37.59 16.4101L38.0625 15.9376C38.2486 15.7506 38.4778 15.6121 38.7299 15.5343C38.982 15.4565 39.2494 15.4418 39.5085 15.4914C39.7676 15.541 40.0106 15.6534 40.2162 15.8188C40.4218 15.9842 40.5836 16.1976 40.6875 16.4401Z" fill="#6871D8"/>
<path d="M37.59 16.4101L34.41 19.5901C34.2012 19.3813 34.0356 19.1334 33.9226 18.8606C33.8096 18.5878 33.7514 18.2954 33.7514 18.0001C33.7514 17.7048 33.8096 17.4124 33.9226 17.1396C34.0356 16.8668 34.2012 16.6189 34.41 16.4101C34.6188 16.2013 34.8667 16.0356 35.1395 15.9226C35.4123 15.8096 35.7047 15.7515 36 15.7515C36.2953 15.7515 36.5877 15.8096 36.8605 15.9226C37.1333 16.0356 37.3812 16.2013 37.59 16.4101Z" fill="#FF9700"/>
<path d="M33 3.75C33 2.0925 31.6575 0.75 30 0.75C28.455 0.75 27.18 1.92 27.015 3.4275C26.2875 3.15 25.5 3 24.6825 3H23.3175C19.5675 3 16.5 6.15 16.5 9.99V14.5125C16.5 13.9575 16.9575 13.5 17.5125 13.5H17.7375C18.2925 13.5 18.75 13.9575 18.75 14.5125V11.22C18.75 11.22 21.0975 10.2075 21.75 8.25C21.75 8.25 24.66 11.8725 29.25 11.22V14.5125C29.25 13.9575 29.7075 13.5 30.2625 13.5H30.4875C31.0425 13.5 31.5 13.9575 31.5 14.5125V9.99C31.5 8.79 31.2 7.6575 30.675 6.6675C31.3363 6.51758 31.9268 6.14698 32.3494 5.6167C32.772 5.08642 33.0014 4.42807 33 3.75Z" fill="#212647"/>
<path d="M41.865 29.5575L37.8675 38.9025C37.77 39.12 37.4475 39.0675 37.425 38.8275L36.75 30.57C36.75 27.7725 34.4775 25.5 31.68 25.5H28.5C28.41 25.5 28.32 25.4925 28.23 25.4775H28.2225L24.435 28.185C24.3084 28.2765 24.1562 28.3258 24 28.3258C23.8438 28.3258 23.6916 28.2765 23.565 28.185L19.7775 25.4775H19.77C19.68 25.4925 19.59 25.5 19.5 25.5H16.32C13.5225 25.5 11.25 27.7725 11.25 30.57L10.575 38.8275C10.5525 39.0675 10.23 39.12 10.1325 38.9025L6.135 29.5575L2.715 31.2675L7.5375 44.5425C7.755 45.15 8.13 45.6675 8.61 46.065C9.09 46.4625 9.675 46.74 10.305 46.845C11.6925 47.0775 13.035 46.2225 13.4175 44.8575L16.5 33.75L17.25 47.25H30.75L31.5 33.75L34.5825 44.8575C34.7644 45.5146 35.183 46.0812 35.7576 46.4481C36.3323 46.815 37.0224 46.9564 37.695 46.845C38.9625 46.6275 40.02 45.75 40.4625 44.5425L45.285 31.2675L41.865 29.5575Z" fill="#FF9700"/>
<path d="M22.6447 13.8375C22.5708 13.8378 22.4984 13.8158 22.437 13.7745C21.648 13.2488 20.853 13.7543 20.8185 13.776C20.7354 13.8298 20.6344 13.8487 20.5375 13.8284C20.4406 13.8082 20.3556 13.7506 20.301 13.668C20.2463 13.5856 20.2265 13.4847 20.246 13.3877C20.2656 13.2907 20.3228 13.2054 20.4052 13.1505C20.4555 13.1175 21.6435 12.3435 22.854 13.1505C22.921 13.1952 22.9719 13.2604 22.999 13.3362C23.0262 13.4121 23.0282 13.4947 23.0047 13.5718C22.9812 13.6489 22.9335 13.7164 22.8687 13.7642C22.8039 13.8121 22.7253 13.8378 22.6447 13.8375Z" fill="#212647"/>
<path d="M24.0495 18.5804C23.5114 18.5805 22.9789 18.4713 22.4842 18.2594C22.4397 18.2384 22.3997 18.2089 22.3665 18.1724C22.3334 18.136 22.3077 18.0934 22.291 18.047C22.2744 18.0007 22.267 17.9515 22.2693 17.9023C22.2716 17.8531 22.2836 17.8048 22.3046 17.7603C22.3256 17.7157 22.3551 17.6757 22.3916 17.6426C22.428 17.6094 22.4706 17.5838 22.517 17.5671C22.5633 17.5504 22.6125 17.543 22.6617 17.5453C22.7109 17.5477 22.7592 17.5597 22.8037 17.5806C22.8165 17.5859 24.0232 18.1349 25.1947 17.5814C25.2393 17.5603 25.2875 17.5482 25.3367 17.5458C25.3859 17.5433 25.4351 17.5506 25.4815 17.5672C25.5278 17.5838 25.5705 17.6093 25.607 17.6424C25.6435 17.6754 25.6732 17.7154 25.6942 17.7599C25.7153 17.8044 25.7274 17.8526 25.7299 17.9018C25.7323 17.951 25.725 18.0002 25.7084 18.0466C25.6919 18.093 25.6663 18.1357 25.6332 18.1722C25.6002 18.2087 25.5603 18.2383 25.5157 18.2594C25.057 18.4743 24.556 18.5839 24.0495 18.5804Z" fill="#FCAD95"/>
<path d="M27.3877 13.8374C27.3138 13.8377 27.2414 13.8157 27.18 13.7744C26.3805 13.2412 25.5705 13.7692 25.5637 13.7744C25.5228 13.8035 25.4765 13.824 25.4275 13.8348C25.3785 13.8456 25.3278 13.8464 25.2785 13.8373C25.2292 13.8281 25.1822 13.8092 25.1403 13.7815C25.0984 13.7539 25.0625 13.7181 25.0347 13.6764C25.0069 13.6346 24.9878 13.5877 24.9784 13.5384C24.9691 13.4891 24.9697 13.4385 24.9803 13.3894C24.9909 13.3404 25.0112 13.294 25.04 13.2529C25.0689 13.2119 25.1057 13.177 25.1482 13.1504C25.1977 13.1174 26.3865 12.3442 27.597 13.1504C27.664 13.1952 27.7149 13.2603 27.742 13.3361C27.7692 13.412 27.7712 13.4946 27.7477 13.5717C27.7242 13.6488 27.6765 13.7163 27.6117 13.7641C27.5469 13.812 27.4683 13.8377 27.3877 13.8374ZM24 37.1249C23.9287 37.125 23.8589 37.1047 23.7987 37.0664C23.7385 37.0282 23.6905 36.9735 23.6602 36.9089L18.4102 25.6589C18.3894 25.6143 18.3775 25.566 18.3753 25.5168C18.373 25.4676 18.3805 25.4185 18.3973 25.3721C18.4141 25.3258 18.4398 25.2833 18.4731 25.2469C18.5063 25.2105 18.5464 25.1811 18.591 25.1602C18.6356 25.1393 18.6839 25.1274 18.7331 25.1252C18.7823 25.123 18.8315 25.1305 18.8778 25.1473C18.9241 25.1641 18.9667 25.1898 19.003 25.223C19.0394 25.2563 19.0689 25.2963 19.0897 25.3409L24 35.8627L28.9102 25.3409C28.9311 25.2963 28.9606 25.2563 28.997 25.223C29.0333 25.1898 29.0759 25.1641 29.1222 25.1473C29.1685 25.1305 29.2177 25.123 29.2669 25.1252C29.3161 25.1274 29.3644 25.1393 29.409 25.1602C29.4536 25.1811 29.4937 25.2105 29.5269 25.2469C29.5601 25.2833 29.5859 25.3258 29.6027 25.3721C29.6194 25.4185 29.6269 25.4676 29.6247 25.5168C29.6225 25.566 29.6106 25.6143 29.5897 25.6589L24.3397 36.9089C24.3095 36.9735 24.2615 37.0282 24.2013 37.0664C24.1411 37.1047 24.0713 37.125 24 37.1249Z" fill="#212647"/>
<path d="M27 37.5V39.75C27 39.9489 26.921 40.1397 26.7803 40.2803C26.6397 40.421 26.4489 40.5 26.25 40.5H21.75C21.5511 40.5 21.3603 40.421 21.2197 40.2803C21.079 40.1397 21 39.9489 21 39.75V37.5C21 37.3011 21.079 37.1103 21.2197 36.9697C21.3603 36.829 21.5511 36.75 21.75 36.75H26.25C26.4489 36.75 26.6397 36.829 26.7803 36.9697C26.921 37.1103 27 37.3011 27 37.5Z" fill="#6871D8"/>
<path d="M24 21C23.2275 21 22.485 20.835 21.825 20.52V20.625C22.4925 20.925 23.2275 21.09 24 21.09C24.7725 21.09 25.5075 20.925 26.175 20.625V20.52C25.515 20.835 24.7725 21 24 21Z" fill="#FCAD95"/>
</svg>
