<svg width="48" height="48" viewBox="0 0 48 48" fill="none" xmlns="http://www.w3.org/2000/svg">
<path d="M43.6941 24.7059C43.6941 24.6354 43.6235 24.6354 43.6235 24.5648C42.9882 23.4354 41.5765 23.4354 40.5177 24.1412C39.0353 25.1295 35.9294 26.4706 33.1059 27.4589V34.8706L42.9882 27.5295C43.9059 26.8942 44.1882 25.6942 43.6941 24.7059Z" fill="#F2A496"/>
<path d="M46.3765 25.7647C45.8118 24.6352 44.4 24.4941 43.3412 25.1294C41.7882 26.047 38.5412 27.247 35.6471 28.0235C35.6471 28.0235 35.8588 26.8941 35.2941 26.1176C34.5176 25.0588 33.1765 24.7058 32.0471 25.1294L22.5176 27.247C21.8118 27.5294 19.2706 27.1764 18.4235 26.9647C15.5294 26.1882 12.4941 26.4 9.88235 27.6V41.0823C12.5647 39.247 19.5529 39.6705 23.7882 40.0941C26.1176 40.3764 28.4471 39.8117 30.4235 38.5411L45.6 28.7294C46.5176 28.0941 46.8706 26.8941 46.3765 25.7647Z" fill="#FABDAB"/>
<path d="M45.3176 24.8472C45.7412 25.906 45.3176 27.0354 44.4706 27.6001L31.7647 35.8589C30.1412 36.9178 28.2353 37.4825 26.3294 37.5531C10.7294 38.1883 9.88235 41.0825 9.88235 41.0825C12.5647 39.2472 19.5529 39.6707 23.7882 40.0942C26.1176 40.3766 28.4471 39.8119 30.4235 38.5413L45.6 28.7295C47.0824 27.7413 46.8706 25.3413 45.3176 24.8472Z" fill="#F2A496"/>
<path d="M34.4471 26.4C34.0235 25.7647 33.1765 25.5529 32.4706 25.7647L30.8471 26.3294C30.5647 27.8118 30.8471 29.0118 31.8353 29.7882L33.8118 28.8706C34.8 28.5177 35.0824 27.2471 34.4471 26.4Z" fill="#F8F9FE"/>
<path d="M34.4471 26.3999C34.0941 25.9058 33.3882 25.5528 32.6824 25.7646C33.6 25.9764 34.1647 26.8234 33.9529 27.8117C33.6706 28.9411 31.6941 29.7881 31.8353 29.8587L33.8118 28.9411C34.8 28.5175 35.0824 27.247 34.4471 26.3999Z" fill="#F3F1FC"/>
<path d="M35.5765 28.0234C35.0824 29.9999 32.7529 30.4234 31.1294 31.1999C28.0941 32.3293 24.9177 33.247 21.7412 34.0234C23.7882 33.3176 25.9059 32.6117 27.9529 31.9058L31.0588 30.847C32.6824 30.2117 34.8706 29.8587 35.5765 28.0234Z" fill="#F2A496"/>
<path d="M11.3647 24.353H6.14119C5.57648 24.353 5.15295 24.7766 5.15295 25.3413V41.2236C5.15295 41.7883 5.57648 42.2118 6.14119 42.2118H11.3647C11.9294 42.2118 12.353 41.7883 12.353 41.2236V25.3413C12.2824 24.7766 11.8588 24.353 11.3647 24.353Z" fill="#E9E7FC"/>
<path d="M8.89413 22.7295H2.40001C1.8353 22.7295 1.41177 23.153 1.41177 23.7177V42.8471C1.41177 43.3413 1.8353 43.7648 2.40001 43.7648H8.89413C9.45883 43.7648 9.88236 43.3413 9.88236 42.7766V23.7177C9.88236 23.153 9.45883 22.7295 8.89413 22.7295Z" fill="#4C5C75"/>
<path d="M2.40001 43.7648H8.89413C9.45883 43.7648 9.88236 43.3413 9.88236 42.7766V23.7177C9.88236 23.506 9.81177 23.3648 9.74119 23.2236C9.17648 26.8942 6.77648 40.306 1.48236 43.2001C1.62354 43.553 1.97648 43.7648 2.40001 43.7648Z" fill="#1D2943"/>
<path d="M8.75294 42.7058C8.47135 40.3613 8.47135 37.9915 8.75294 35.647C8.89411 36.7764 8.9647 38.1176 8.9647 39.1764C8.9647 40.3764 8.89411 41.5058 8.75294 42.7058Z" fill="white"/>
<path d="M5.64706 28.2352C6.62168 28.2352 7.41177 27.4451 7.41177 26.4705C7.41177 25.4959 6.62168 24.7058 5.64706 24.7058C4.67244 24.7058 3.88235 25.4959 3.88235 26.4705C3.88235 27.4451 4.67244 28.2352 5.64706 28.2352Z" fill="#E9E7FC"/>
<path d="M6.00002 24.7764C6.35296 25.0587 6.56473 25.5528 6.56473 26.047C6.56473 27.0352 5.78826 27.8117 4.80002 27.8117H4.51767C4.80002 28.0234 5.22355 28.2352 5.64708 28.2352C6.63532 28.2352 7.41179 27.4587 7.41179 26.4705C7.41179 25.6234 6.77649 24.9175 6.00002 24.7764Z" fill="#DEDFFB"/>
<path d="M19.7647 13.0589V8.04712C19.7647 6.98829 19.3412 6.07065 18.6353 5.36476C17.9294 4.65888 17.0118 4.23535 15.9529 4.23535C13.8353 4.23535 12.1412 5.92947 12.1412 8.04712V13.0589C14.8941 13.6942 17.4353 13.6942 19.7647 13.0589Z" fill="#1D2943"/>
<path d="M22.0941 18.0707C22.0941 20.8942 9.74118 20.8942 9.74118 18.0707C9.74118 16.0942 11.3647 14.5413 13.2706 14.5413H13.6235C13.6235 15.8118 14.6824 16.8707 15.9529 16.8707C17.2235 16.8707 18.2824 15.8118 18.2824 14.5413H18.4941C20.4706 14.5413 22.0941 16.0942 22.0941 18.0707Z" fill="#78E75A"/>
<path d="M22.0941 18.0707C22.0941 16.8001 21.4588 15.6707 20.4 15.0354C19.9059 15.8119 17.6471 18.4236 10.3765 19.0589C12.9882 20.8236 22.0941 20.5413 22.0941 18.0707Z" fill="#72D561"/>
<path d="M18.2824 14.5413C18.2824 15.8118 17.2235 16.8707 15.9529 16.8707C14.6824 16.8707 13.6235 15.8118 13.6235 14.5413H18.2824Z" fill="white"/>
<path d="M17.5059 12.9883V14.5412C17.5059 15.3883 16.8 16.0942 15.9529 16.0942C15.1059 16.0942 14.4 15.3883 14.4 14.5412V12.9883H17.5059Z" fill="#FABDAB"/>
<path d="M17.5059 13.3411V14.2587C14.9647 14.3999 14.4 13.4822 14.4 13.4822V13.3411H17.5059Z" fill="#EA8B82"/>
<path d="M18.8471 8.82347V11.0117C18.8471 12.4941 17.7177 13.8352 16.2353 13.9764C14.5412 14.1176 13.1294 12.7764 13.1294 11.1529V8.89405C13.1294 7.19994 18.8471 7.19994 18.8471 8.82347Z" fill="#FABDAB"/>
<path d="M15.1059 12.1411C15.0353 12.1411 14.9647 12.2823 14.9647 12.3529C15.1059 12.7058 15.4588 12.9176 15.8824 12.9176C16.3059 12.9176 16.6588 12.7058 16.8 12.3529C16.8706 12.2823 16.8 12.1411 16.6588 12.1411H15.1059Z" fill="white"/>
<path d="M16.3059 11.2236C16.2353 11.3648 16.0941 11.506 15.9529 11.506C15.7412 11.506 15.6 11.3648 15.6 11.2236H16.3059Z" fill="#EA8B82"/>
<path d="M14.8941 10.1647C14.8941 10.3059 14.7529 10.5176 14.5412 10.5176C14.4 10.5176 14.2588 10.3765 14.2588 10.1647C14.2588 10.0235 14.4 9.88233 14.5412 9.88233C14.7529 9.88233 14.8941 10.0235 14.8941 10.1647ZM17.5765 10.1647C17.5765 10.3059 17.4353 10.5176 17.2235 10.5176C17.0824 10.5176 16.9412 10.3765 16.9412 10.1647C16.9412 10.0235 17.0824 9.88233 17.2235 9.88233C17.4353 9.88233 17.5765 10.0235 17.5765 10.1647ZM15.3176 9.4588C15.3176 9.52939 15.2471 9.59998 15.1765 9.59998H13.9765C13.9059 9.59998 13.8353 9.52939 13.8353 9.4588C13.8353 9.38822 13.9059 9.31763 13.9765 9.31763H15.1765C15.2471 9.31763 15.3176 9.38822 15.3176 9.4588ZM18 9.4588C18 9.52939 17.9294 9.59998 17.8588 9.59998H16.6588C16.5882 9.59998 16.5176 9.52939 16.5176 9.4588C16.5176 9.38822 16.5882 9.31763 16.6588 9.31763H17.8588C17.9294 9.31763 18 9.38822 18 9.4588Z" fill="#1D2943"/>
<path d="M19.9059 9.88231C19.9059 10.447 19.4118 10.9411 18.8471 10.9411V8.82349C19.4118 8.82349 19.9059 9.3176 19.9059 9.88231Z" fill="#FABDAB"/>
<path d="M19.0588 8.82352V10.8706H18.8471V8.75293C18.9177 8.82352 18.9883 8.82352 19.0588 8.82352Z" fill="#EA8B82"/>
<path d="M12.0706 9.88231C12.0706 10.447 12.5647 10.9411 13.1294 10.9411V8.82349C12.5647 8.82349 12.0706 9.3176 12.0706 9.88231Z" fill="#FABDAB"/>
<path d="M12.9177 8.82352V10.8706H13.1294V8.75293C13.0588 8.82352 12.9883 8.82352 12.9177 8.82352Z" fill="#EA8B82"/>
<path d="M13.4118 6.84709C13.553 6.28239 13.9059 5.85886 14.4 5.57651C14.8941 5.29415 15.4588 5.15298 16.0235 5.29415C15.5294 5.43533 15.0353 5.57651 14.6118 5.85886C14.1177 6.07062 13.7647 6.42357 13.4118 6.84709Z" fill="white"/>
<path d="M41.0118 8.04712V15.6706H33.4588V8.04712C33.4588 5.92947 35.1529 4.23535 37.2706 4.23535C38.3294 4.23535 39.2471 4.65888 39.9529 5.36476C40.5882 6.07065 41.0118 7.05888 41.0118 8.04712Z" fill="#1D2943"/>
<path d="M43.3412 18.0707C43.3412 20.8942 30.9883 20.8942 30.9883 18.0707C30.9883 16.0942 32.6118 14.5413 34.5177 14.5413H34.8706C34.8706 15.8118 35.9294 16.8707 37.2 16.8707C38.4706 16.8707 39.5294 15.8118 39.5294 14.5413H39.7412C41.7882 14.5413 43.3412 16.0942 43.3412 18.0707Z" fill="#57B3FE"/>
<path d="M43.3412 18.0707C43.3412 16.8001 42.7059 15.6707 41.6471 15.0354C41.1529 15.8119 38.8941 18.4236 31.6235 19.0589C34.2353 20.8236 43.3412 20.5413 43.3412 18.0707Z" fill="#5094FF"/>
<path d="M39.6 14.5413C39.6 15.8118 38.5412 16.8707 37.2706 16.8707C36 16.8707 34.9412 15.8118 34.9412 14.5413H39.6Z" fill="white"/>
<path d="M38.8235 12.9883V14.5412C38.8235 15.3883 38.1177 16.0942 37.2706 16.0942C36.4235 16.0942 35.7177 15.3883 35.7177 14.5412V12.9883H38.8235Z" fill="#FABDAB"/>
<path d="M38.8235 13.3411V14.2587C36.2824 14.3999 35.7177 13.4822 35.7177 13.4822V13.3411H38.8235Z" fill="#EA8B82"/>
<path d="M40.0941 8.82347V11.0117C40.0941 12.4941 38.9647 13.8352 37.4824 13.9764C35.7882 14.1176 34.3765 12.7764 34.3765 11.1529V8.89405C34.3765 7.19994 40.0941 7.19994 40.0941 8.82347Z" fill="#FABDAB"/>
<path d="M36.4235 12.1411C36.3529 12.1411 36.2824 12.2823 36.2824 12.3529C36.4235 12.7058 36.7765 12.9176 37.2 12.9176C37.6235 12.9176 37.9765 12.7058 38.1177 12.3529C38.1882 12.2823 38.1177 12.1411 37.9765 12.1411H36.4235Z" fill="white"/>
<path d="M37.553 11.2236C37.4824 11.3648 37.3412 11.506 37.2 11.506C36.9883 11.506 36.8471 11.3648 36.8471 11.2236H37.553Z" fill="#EA8B82"/>
<path d="M36.2118 10.1647C36.2118 10.3059 36.0706 10.5176 35.8588 10.5176C35.7177 10.5176 35.5765 10.3765 35.5765 10.1647C35.5765 10.0235 35.7177 9.88233 35.8588 9.88233C36.0706 9.88233 36.2118 10.0235 36.2118 10.1647ZM38.8235 10.1647C38.8235 10.3059 38.6824 10.5176 38.4706 10.5176C38.3294 10.5176 38.1882 10.3765 38.1882 10.1647C38.1882 10.0235 38.3294 9.88233 38.4706 9.88233C38.6824 9.88233 38.8235 10.0235 38.8235 10.1647ZM36.5647 9.4588C36.5647 9.52939 36.4941 9.59998 36.4235 9.59998H35.2941C35.2235 9.59998 35.153 9.52939 35.153 9.4588C35.153 9.38822 35.2235 9.31763 35.2941 9.31763H36.4941C36.5647 9.31763 36.5647 9.38822 36.5647 9.4588ZM39.2471 9.4588C39.2471 9.52939 39.1765 9.59998 39.1059 9.59998H37.9059C37.8353 9.59998 37.7647 9.52939 37.7647 9.4588C37.7647 9.38822 37.8353 9.31763 37.9059 9.31763H39.1059C39.1765 9.31763 39.2471 9.38822 39.2471 9.4588Z" fill="#1D2943"/>
<path d="M41.1529 9.88231C41.1529 10.447 40.6588 10.9411 40.0941 10.9411V8.82349C40.6588 8.82349 41.1529 9.3176 41.1529 9.88231Z" fill="#FABDAB"/>
<path d="M40.3059 8.82352V10.8706H40.0941V8.75293C40.1647 8.82352 40.2353 8.82352 40.3059 8.82352Z" fill="#EA8B82"/>
<path d="M33.3177 9.88231C33.3177 10.447 33.8118 10.9411 34.3765 10.9411V8.82349C33.8118 8.82349 33.3177 9.3176 33.3177 9.88231Z" fill="#FABDAB"/>
<path d="M34.1647 8.82352V10.8706H34.3765V8.75293C34.3059 8.82352 34.2353 8.82352 34.1647 8.82352Z" fill="#EA8B82"/>
<path d="M34.7294 6.84709C34.8706 6.28239 35.2235 5.85886 35.7177 5.57651C36.2118 5.29415 36.7765 5.15298 37.3412 5.29415C36.8471 5.43533 36.353 5.57651 35.9294 5.85886C35.4353 6.07062 35.0118 6.42357 34.7294 6.84709Z" fill="white"/>
<path d="M34.2353 21.4587C34.2353 23.4352 30.0706 24.0705 28.1647 24.2116C25.4118 24.494 17.7882 24.2116 17.7882 21.4587C17.7882 20.1175 18.3529 18.9881 19.2 18.0705C19.5529 17.7175 19.9059 17.4352 20.3294 17.2234C20.9647 16.8705 21.7412 16.6587 22.5882 16.6587H29.5059C29.7882 16.6587 30.1412 16.6587 30.4235 16.7293C30.5647 16.7293 30.7059 16.7999 30.8471 16.8705C32.8235 17.5057 34.2353 19.341 34.2353 21.4587Z" fill="#F34B58"/>
<path d="M22.9412 16.7293L23.7177 19.8352C23.8588 20.3999 24.4235 20.5411 24.7059 20.2588L26.1177 18.9176L24.1412 16.5176L22.9412 16.7293ZM29.2941 16.7293L28.4471 20.047C28.3765 20.4705 27.8118 20.6117 27.5294 20.3293L26.1177 18.9882L28.0941 16.5882L29.2941 16.7293Z" fill="#E9E7FC"/>
<path d="M28.0941 14.9646V16.9411C28.0941 17.9999 27.1765 18.9175 26.1176 18.9175C25.0588 18.9175 24.1412 17.9999 24.1412 16.9411V14.9646H28.0941Z" fill="#FABDAB"/>
<path d="M28.0941 15.4588V16.5882C24.9176 16.7294 24.1412 15.5999 24.1412 15.5999V15.3882H28.0941V15.4588Z" fill="#EA8B82"/>
<path d="M29.7177 8.18823V12.6353C29.7177 14.6118 28.0941 16.2353 26.1177 16.2353C24.1412 16.2353 22.5177 14.6118 22.5177 12.6353V8.18823H29.7177Z" fill="#FABDAB"/>
<path d="M30.9177 11.4352C30.9177 12.0705 30.4235 12.6352 29.7177 12.6352V10.3058C30.3529 10.2352 30.9177 10.7293 30.9177 11.4352Z" fill="#FABDAB"/>
<path d="M30 10.2354V12.5648H29.7177V10.2354H30Z" fill="#EA8B82"/>
<path d="M21.3177 11.4352C21.3177 12.0705 21.8118 12.6352 22.5177 12.6352V10.3058C21.8118 10.2352 21.3177 10.7293 21.3177 11.4352Z" fill="#FABDAB"/>
<path d="M22.2353 10.2354V12.5648H22.5176V10.2354H22.2353Z" fill="#EA8B82"/>
<path d="M25.0588 13.9058C24.9176 13.9058 24.8471 14.0469 24.9176 14.1881C25.1294 14.6116 25.5529 14.894 26.0471 14.894C26.5412 14.894 27.0353 14.6116 27.1765 14.1881C27.2471 14.0469 27.1765 13.9058 27.0353 13.9058H25.0588Z" fill="white"/>
<path d="M26.5412 12.7058C26.4706 12.9176 26.2588 13.0588 26.0471 13.0588C25.8353 13.0588 25.6235 12.9176 25.5529 12.7058H26.5412Z" fill="#EA8B82"/>
<path d="M24.7765 11.4353C24.7765 11.6471 24.5647 11.8588 24.3529 11.8588C24.1412 11.8588 23.9294 11.6471 23.9294 11.4353C23.9294 11.2235 24.1412 11.0118 24.3529 11.0118C24.5647 11.0823 24.7765 11.2235 24.7765 11.4353ZM28.0941 11.4353C28.0941 11.6471 27.8824 11.8588 27.6706 11.8588C27.4588 11.8588 27.2471 11.6471 27.2471 11.4353C27.2471 11.2235 27.4588 11.0118 27.6706 11.0118C27.953 11.0823 28.0941 11.2235 28.0941 11.4353ZM25.2706 10.5176C25.2706 10.5882 25.2 10.6588 25.1294 10.6588H23.6471C23.5765 10.6588 23.5059 10.5882 23.5059 10.5176C23.5059 10.4471 23.5765 10.3765 23.6471 10.3765H25.1294C25.2 10.3765 25.2706 10.4471 25.2706 10.5176ZM28.6588 10.5176C28.6588 10.5882 28.5882 10.6588 28.5177 10.6588H27.0353C26.9647 10.6588 26.8941 10.5882 26.8941 10.5176C26.8941 10.4471 26.9647 10.3765 27.0353 10.3765H28.5177C28.5882 10.3765 28.6588 10.4471 28.6588 10.5176Z" fill="#1D2943"/>
<path d="M29.8588 11.7176C29.5765 10.9412 29.2941 9.67057 29.0118 8.25881C26.6823 9.17646 24 8.96469 22.5176 7.97646C21.1765 7.05881 21.3882 5.64704 22.4471 4.94116C23.7882 3.95293 26.3294 3.81175 28.1647 5.2941C28.1647 5.2941 30.5647 4.37646 29.7176 6.70587C31.2706 6.21175 30.7765 8.68234 29.8588 11.7176Z" fill="#1D2943"/>
<path d="M22.3059 6.70581C23.7883 6.21169 23.2941 8.68228 22.3765 11.7176C22.0941 10.9411 21.8118 9.67051 21.5294 8.25875C21.5294 8.25875 21.3177 6.63522 22.3059 6.70581Z" fill="#1D2943"/>
<path d="M34.2353 21.4589C34.2353 19.6236 33.2471 18.0707 31.7647 17.2942C31.2 19.2001 28.8 23.5765 17.9294 21.953C19.2706 25.2707 34.2353 25.0589 34.2353 21.4589Z" fill="#E11226"/>
<path d="M33.4588 20.8235C33.5294 21.5294 33.1059 22.1647 32.5412 22.5882C31.8353 23.0117 31.0588 23.0117 30.4941 22.7294C31.2 22.6588 31.7647 22.447 32.2588 22.1647C32.6823 21.8117 33.1059 21.3882 33.4588 20.8235ZM42.8471 16.9411C42.9176 17.647 42.4941 18.2823 41.9294 18.7059C41.6471 18.9176 41.2941 19.0588 40.9412 19.0588C40.5882 19.0588 40.2353 19.0588 39.8823 18.847C40.5882 18.7764 41.1529 18.5647 41.6471 18.2823C42.1412 18 42.4941 17.5059 42.8471 16.9411ZM10.8 17.4353C10.7294 16.9411 11.0823 16.447 11.5059 16.1647C11.7176 16.0235 12 15.9529 12.2823 15.8823C12.5647 15.8823 12.8471 15.8823 13.0588 16.0235C12.5647 16.0941 12.1412 16.2353 11.7882 16.447C11.2941 16.6588 11.0118 16.9411 10.8 17.4353Z" fill="white"/>
</svg>
