<svg width="48" height="48" viewBox="0 0 48 48" fill="none" xmlns="http://www.w3.org/2000/svg">
<path d="M32.5275 6.65992C32.4615 6.53325 32.3626 6.4267 32.2412 6.35148C32.1198 6.27625 31.9803 6.23512 31.8375 6.23242L25.14 6.35992C23.3915 6.38295 21.7218 7.09121 20.49 8.33242L3.6375 25.1849C2.93448 25.8882 2.53955 26.8418 2.53955 27.8362C2.53955 28.8305 2.93448 29.7842 3.6375 30.4874C8.5575 35.2949 8.3325 35.4299 8.8875 35.4149C8.9913 35.4098 9.09291 35.3831 9.18587 35.3367C9.27883 35.2902 9.36111 35.2249 9.4275 35.1449L32.4225 7.49992C32.5226 7.38676 32.5861 7.24603 32.6048 7.09615C32.6236 6.94627 32.5966 6.79423 32.5275 6.65992Z" fill="url(#paint0_linear_935_2263)"/>
<path d="M30.975 6.6523L24.525 8.5048C22.8473 8.98908 21.4225 10.1047 20.55 11.6173L8.63249 32.2498C8.13523 33.1111 8.00048 34.1346 8.25787 35.0953C8.51526 36.0559 9.14372 36.875 10.005 37.3723L22.3425 44.4973C23.25 44.9998 24.75 45.3823 24.945 44.3923L31.92 7.4998C31.9413 7.37482 31.9307 7.24648 31.8889 7.12675C31.8472 7.00703 31.7758 6.89983 31.6814 6.81518C31.5871 6.73054 31.4727 6.6712 31.3492 6.64271C31.2257 6.61422 31.0969 6.61752 30.975 6.6523Z" fill="url(#paint1_linear_935_2263)"/>
<path d="M42.36 13.4999L36.075 6.96742C35.7252 6.60449 35.3058 6.31581 34.8419 6.11863C34.378 5.92145 33.8791 5.81982 33.375 5.81982C32.8709 5.81982 32.372 5.92145 31.9081 6.11863C31.4442 6.31581 31.0248 6.60449 30.675 6.96742L24.39 13.4999C23.1803 14.755 22.5031 16.4293 22.5 18.1724V41.9999C22.5 42.9945 22.8951 43.9483 23.5983 44.6516C24.3016 45.3548 25.2554 45.7499 26.25 45.7499H40.5C41.4946 45.7499 42.4484 45.3548 43.1516 44.6516C43.8549 43.9483 44.25 42.9945 44.25 41.9999V18.1724C44.2469 16.4293 43.5697 14.755 42.36 13.4999Z" fill="url(#paint2_linear_935_2263)"/>
<path d="M38.25 2.15991C38.25 2.20491 37.6725 6.41991 34.3425 8.36241C34.0924 8.14857 33.7789 8.02292 33.4503 8.00482C33.1217 7.98672 32.7963 8.07717 32.5242 8.26224C32.2521 8.44731 32.0484 8.71673 31.9445 9.02898C31.8406 9.34122 31.8423 9.67897 31.9493 9.99017C32.0562 10.3014 32.2626 10.5688 32.5365 10.7511C32.8104 10.9335 33.1367 11.0207 33.4651 10.9994C33.7935 10.978 34.1057 10.8493 34.3537 10.633C34.6017 10.4167 34.7717 10.1248 34.8375 9.80241C39 7.58241 39.75 2.57991 39.75 2.33991L38.25 2.15991Z" fill="url(#paint3_linear_935_2263)"/>
<path fill-rule="evenodd" clip-rule="evenodd" d="M34.4404 21.6829C35.0663 21.6763 35.6485 21.7704 36.1865 21.9642C36.7283 22.154 37.2183 22.4284 37.6562 22.7874L36.8535 24.5443C36.6642 24.3977 36.4491 24.2548 36.209 24.1165C35.969 23.9784 35.7033 23.8645 35.4131 23.7738C35.1228 23.6831 34.8059 23.6393 34.4619 23.6429C33.8793 23.6491 33.3663 23.8088 32.9238 24.1224C32.4812 24.4323 32.1353 24.9021 31.8877 25.5306C31.8247 25.6921 31.7706 25.8647 31.7246 26.0482L36.2119 26.0003L35.6562 27.2562L31.5498 27.2992C31.54 27.4912 31.5359 27.6911 31.5381 27.8988C31.5402 28.0975 31.5487 28.2888 31.5615 28.473L35.1523 28.4349L34.5615 29.7093L31.7627 29.7386C31.813 29.9235 31.8713 30.0971 31.9385 30.2591C32.1994 30.8783 32.5548 31.3367 33.0039 31.6331C33.4529 31.9294 33.9691 32.0739 34.5518 32.0677C34.8959 32.064 35.2125 32.0162 35.501 31.9232C35.7893 31.8302 36.0481 31.7139 36.2773 31.5746C36.5104 31.4352 36.7103 31.2962 36.877 31.1576L37.7295 32.8968C37.3149 33.265 36.8346 33.544 36.2891 33.7337C35.7473 33.9234 35.1746 34.0212 34.5723 34.0277C33.5711 34.0383 32.6809 33.8031 31.9014 33.3226C31.1255 32.838 30.5133 32.1385 30.0654 31.224C29.8486 30.7795 29.6844 30.2919 29.5693 29.7621L27.8965 29.7806L28.3467 28.5081L29.3965 28.4964C29.3843 28.3092 29.3751 28.1179 29.373 27.9222C29.3709 27.7179 29.3758 27.5179 29.3848 27.3226L27.8701 27.3392L28.3203 26.0853L29.5293 26.0716C29.633 25.5392 29.7872 25.0484 29.9941 24.5999C30.4224 23.6722 31.0199 22.9575 31.7852 22.4564C32.5542 21.9515 33.4393 21.6937 34.4404 21.6829Z" fill="white"/>
<defs>
<linearGradient id="paint0_linear_935_2263" x1="27.3525" y1="4.61992" x2="4.53" y2="33.2249" gradientUnits="userSpaceOnUse">
<stop stop-color="#FFC033"/>
<stop offset="1" stop-color="#FF9A36"/>
</linearGradient>
<linearGradient id="paint1_linear_935_2263" x1="35.4375" y1="6.5773" x2="14.5425" y2="41.9323" gradientUnits="userSpaceOnUse">
<stop stop-color="#CE7F20"/>
<stop offset="1" stop-color="#B2500D"/>
</linearGradient>
<linearGradient id="paint2_linear_935_2263" x1="33.375" y1="5.81992" x2="33.375" y2="45.7499" gradientUnits="userSpaceOnUse">
<stop stop-color="#FFC033"/>
<stop offset="1" stop-color="#FF9A36"/>
</linearGradient>
<linearGradient id="paint3_linear_935_2263" x1="31.875" y1="6.57741" x2="39.7425" y2="6.57741" gradientUnits="userSpaceOnUse">
<stop stop-color="#002237"/>
<stop offset="1" stop-color="#003352"/>
</linearGradient>
</defs>
</svg>
