<svg width="48" height="48" viewBox="0 0 48 48" fill="none" xmlns="http://www.w3.org/2000/svg">
<g clip-path="url(#clip0_936_2541)">
<path d="M23.8953 4.57038C24.5263 3.11748 26.2307 2.46628 27.6703 3.13141L42.7169 10.0886L47.6666 16.9883V30.3004L36.426 25.8449C35.8649 25.5853 35.3606 25.2176 34.9418 24.7628C34.523 24.308 34.1981 23.7751 33.9856 23.1945L31.515 16.4405C30.9766 14.9779 31.7533 13.3457 33.216 12.8082L34.4902 13.3883L35.3504 12.9046L25.3522 8.28154C23.9517 7.634 23.2806 5.986 23.8953 4.57038Z" fill="#FDBBA7"/>
<path d="M36.8148 14.4933L38.792 19.8873L36.1386 20.8524L33.2161 12.8083C34.6777 12.2866 36.2831 13.0417 36.8148 14.4933Z" fill="#FDA38A"/>
<path d="M20.011 32.4236H19.7646C15.8724 32.4236 12.7058 35.5902 12.7058 39.4824V42.306L18.6351 43.2471L24 42.306L24.9411 38.5412L24 33.8354L20.011 32.4236Z" fill="#BDE55E"/>
<path d="M28.2353 32.4236H27.9886L24 33.8354V42.306L29.2705 43.2471L35.2941 42.306V39.4824C35.2941 35.5901 32.1274 32.4236 28.2353 32.4236ZM19.7646 42.306V39.4824H16.9411V42.306H12.7058V45.1295H24L24.9411 43.8118L24 42.306H19.7646Z" fill="#5AC77F"/>
<path d="M31.0588 42.306V39.4824H28.2352V42.306H23.9999V45.1295H35.2941V42.306H31.0588Z" fill="#0FA58C"/>
<path d="M17.647 27.4823C17.647 30.9854 20.4969 33.8353 23.9999 33.8353L24.9411 27.7176L23.9999 21.1294C20.4969 21.1294 17.647 23.9793 17.647 27.4823Z" fill="#F1B986"/>
<path d="M23.9999 21.1294V33.8353C27.5029 33.8353 30.3529 30.9854 30.3529 27.4823C30.3529 23.9793 27.5029 21.1294 23.9999 21.1294Z" fill="#E2A570"/>
<path d="M23.1005 4.57038C22.4694 3.11748 20.7651 2.46628 19.3255 3.13141L4.27892 10.0886L-0.670834 16.9883V30.3004L10.5698 25.8449C11.1309 25.5853 11.6352 25.2176 12.054 24.7628C12.4728 24.308 12.7977 23.7751 13.0102 23.1945L15.4808 16.4405C16.0192 14.9779 15.2425 13.3457 13.7798 12.8082L12.5056 13.3883L11.6454 12.9046L21.6436 8.28154C23.0441 7.634 23.7152 5.986 23.1005 4.57038Z" fill="#FDBBA7"/>
<path d="M10.181 14.4933L8.20381 19.8873L10.8572 20.8524L13.7797 12.8083C12.3181 12.2866 10.7127 13.0417 10.181 14.4933Z" fill="#FDA38A"/>
<path d="M23.438 4.73273C22.8069 3.27983 21.1025 2.62863 19.663 3.29376L4.61638 10.251L-0.33337 17.1506V30.4628L10.9072 26.0072C11.4683 25.7477 11.9727 25.3799 12.3915 24.9252C12.8103 24.4704 13.1352 23.9374 13.3477 23.3569L15.8183 16.6029C16.3566 15.1403 15.58 13.5081 14.1173 12.9706L12.843 13.5506L11.9829 13.067L21.981 8.44389C23.3816 7.79636 24.0527 6.14836 23.438 4.73273Z" fill="#FDBBA7"/>
<path d="M10.5185 14.6556L8.54127 20.0497L11.1946 21.0148L14.1172 12.9706C12.6555 12.4489 11.0502 13.204 10.5185 14.6556Z" fill="#FDA38A"/>
</g>
<defs>
<clipPath id="clip0_936_2541">
<rect width="48" height="48" fill="white"/>
</clipPath>
</defs>
</svg>
