<svg width="48" height="48" viewBox="0 0 48 48" fill="none" xmlns="http://www.w3.org/2000/svg">
<path d="M39.2428 11.3034C39.5388 10.0512 38.7636 8.7961 37.5114 8.50008C36.2592 8.20407 35.0041 8.97923 34.7081 10.2314C34.4121 11.4837 35.1872 12.7387 36.4395 13.0348C37.6917 13.3308 38.9468 12.5556 39.2428 11.3034Z" fill="#F0B16E"/>
<path fill-rule="evenodd" clip-rule="evenodd" d="M30.8178 3.29517L33.5323 9.17661C34.526 11.3296 34.7787 12.8077 37.3841 13.4043C38.2663 13.6062 39.2504 13.6294 40.3024 13.5333C40.4386 13.5204 40.576 13.5372 40.705 13.5826C40.834 13.628 40.9516 13.7009 41.0497 13.7962C41.1478 13.8916 41.2241 14.0071 41.2732 14.1347C41.3222 14.2624 41.343 14.3992 41.334 14.5357L41.266 15.624L34.5095 23.5994L32.0367 18.5146C31.9627 13.9051 30.8859 9.82595 29.651 5.26288L30.8178 3.29517Z" fill="#19CFBA"/>
<path d="M13.0606 12.403C13.9705 11.4932 13.9705 10.018 13.0606 9.10818C12.1508 8.19833 10.6756 8.19833 9.76577 9.10818C8.85591 10.018 8.85591 11.4932 9.76577 12.4031C10.6756 13.3129 12.1508 13.3129 13.0606 12.403Z" fill="#F0B16E"/>
<path fill-rule="evenodd" clip-rule="evenodd" d="M17.5667 3.29517L14.8522 9.17661C13.8585 11.3296 13.6059 12.8077 11.0004 13.4043C10.1183 13.6062 9.13419 13.6294 8.08213 13.5333C7.94595 13.5204 7.8086 13.5372 7.67957 13.5826C7.55054 13.628 7.43291 13.7009 7.33481 13.7962C7.23671 13.8916 7.16048 14.0071 7.11139 14.1347C7.06231 14.2624 7.04154 14.3992 7.05051 14.5357L7.11858 15.624L13.8751 23.5994L16.3478 18.5146C16.4218 13.9051 17.4987 9.82595 18.7335 5.26288L17.5667 3.29517Z" fill="#19CFBA"/>
<path fill-rule="evenodd" clip-rule="evenodd" d="M30.7789 2.94438C31.0812 3.04134 31.2883 3.18851 31.4182 3.49379C31.5298 3.75606 31.5226 4.02573 31.3971 4.28166C29.9231 7.28809 27.8954 11.0364 27.3141 14.0183C26.9327 15.9746 26.7991 18.2186 26.7871 20.6041H26.7381L24.1924 18.0547L21.6466 20.6041H21.5977C21.5857 18.2186 21.452 15.9746 21.0706 14.0183C20.4894 11.0364 18.4616 7.28809 16.9877 4.28166C16.9272 4.15963 16.8939 4.02598 16.89 3.88986C16.8861 3.75375 16.9117 3.6184 16.965 3.4931C17.0183 3.36779 17.0981 3.25551 17.1989 3.16394C17.2997 3.07238 17.4191 3.0037 17.5489 2.96262L17.6058 2.94438C18.04 2.80509 18.5008 2.98701 18.7227 3.38541C19.6931 5.12771 20.8064 6.52374 22.0708 7.55229C23.3198 8.56835 25.0649 8.56835 26.314 7.55229C27.5784 6.52374 28.6916 5.12771 29.6621 3.38541C29.8839 2.9871 30.3446 2.80518 30.7789 2.94438Z" fill="#FA6E85"/>
<path fill-rule="evenodd" clip-rule="evenodd" d="M24.5464 17.1523L24.495 17.2044C24.1526 17.5511 24.0946 18.0715 24.3522 18.4851C26.1685 21.4016 27.6689 23.1729 27.6518 26.8993C27.6372 30.0715 26.3209 34.8195 25.5322 38.2609C25.4827 38.4776 25.5195 38.7051 25.6349 38.8951C25.7503 39.0851 25.9352 39.2227 26.1503 39.2787L26.2887 39.3147C26.6701 39.4138 27.0572 39.2485 27.2494 38.9045L31.1504 31.9231L30.1204 38.7091C30.1002 38.8385 30.1072 38.9707 30.1409 39.0973C30.1745 39.2239 30.2342 39.3421 30.3161 39.4443C30.398 39.5466 30.5002 39.6307 30.6164 39.6912C30.7325 39.7518 30.86 39.7875 30.9907 39.7962L31.148 39.8072C31.5632 39.8363 31.9339 39.6057 32.0913 39.2203C33.8529 34.9057 35.2919 30.505 36.4912 26.0406C36.6534 25.4369 36.881 24.9449 37.236 24.4304C38.9892 21.8895 40.6358 19.2337 42.1787 16.4663C42.3067 16.2378 42.3436 15.9693 42.2819 15.7147C42.2202 15.4601 42.0646 15.2383 41.8462 15.0936L41.7684 15.0419C41.2965 14.7281 40.658 14.8509 40.3362 15.3174C39.5264 16.4918 38.6314 17.6052 37.6584 18.6484C36.3767 20.0231 35.0074 21.4541 33.0498 21.7223C30.7911 22.0318 30.0259 21.1511 28.617 19.7422L26.0222 17.1475C25.9255 17.05 25.8104 16.9727 25.6835 16.9201C25.5567 16.8675 25.4206 16.8407 25.2833 16.8411C25.146 16.8416 25.0101 16.8693 24.8836 16.9227C24.7571 16.9761 24.6425 17.0542 24.5464 17.1523Z" fill="#FFBF31"/>
<path d="M33.1073 21.6833C34.394 21.6833 35.4371 20.6402 35.4371 19.3535C35.4371 18.0668 34.394 17.0237 33.1073 17.0237C31.8206 17.0237 30.7775 18.0668 30.7775 19.3535C30.7775 20.6402 31.8206 21.6833 33.1073 21.6833Z" fill="#F0B16E"/>
<path fill-rule="evenodd" clip-rule="evenodd" d="M23.8381 17.1523L23.8896 17.2044C24.2319 17.5511 24.2899 18.0715 24.0323 18.4851C22.216 21.4016 20.7156 23.1729 20.7327 26.8993C20.7473 30.0715 22.0637 34.8195 22.8523 38.2609C22.9018 38.4776 22.865 38.7051 22.7496 38.8951C22.6343 39.0851 22.4494 39.2227 22.2343 39.2787L22.0958 39.3147C21.7144 39.4138 21.3274 39.2485 21.1352 38.9045L17.2342 31.9231L18.2642 38.7091C18.2844 38.8385 18.2774 38.9707 18.2437 39.0973C18.21 39.2239 18.1503 39.3421 18.0685 39.4443C17.9866 39.5466 17.8843 39.6307 17.7682 39.6912C17.652 39.7518 17.5246 39.7875 17.3939 39.7962L17.2366 39.8072C16.8214 39.8363 16.4507 39.6057 16.2933 39.2203C14.5316 34.9057 13.0927 30.505 11.8933 26.0406C11.7312 25.4369 11.5036 24.9449 11.1486 24.4304C9.39532 21.8895 7.74873 19.2337 6.20582 16.4663C6.07787 16.2378 6.04103 15.9693 6.10271 15.7147C6.16438 15.4602 6.32 15.2383 6.53836 15.0936L6.61612 15.0419C7.08806 14.7281 7.72656 14.8509 8.04835 15.3174C8.85818 16.4918 9.75319 17.6052 10.7262 18.6484C12.0079 20.0231 13.3771 21.4541 15.3347 21.7223C17.5934 22.0318 18.3587 21.1511 19.7675 19.7422L22.3623 17.1475C22.4591 17.05 22.5742 16.9727 22.701 16.9201C22.8279 16.8675 22.9639 16.8407 23.1012 16.8411C23.2386 16.8416 23.3744 16.8693 23.5009 16.9227C23.6274 16.9761 23.7421 17.0542 23.8381 17.1523Z" fill="#60B7FE"/>
<path d="M17.4365 20.2502C17.9294 19.0616 17.3653 17.6985 16.1767 17.2057C14.9881 16.7129 13.625 17.2769 13.1322 18.4655C12.6394 19.6541 13.2034 21.0172 14.392 21.51C15.5806 22.0028 16.9437 21.4388 17.4365 20.2502Z" fill="#F0B16E"/>
<path d="M24.1923 8.31443C25.479 8.31443 26.5221 7.27134 26.5221 5.98461C26.5221 4.69788 25.479 3.65479 24.1923 3.65479C22.9056 3.65479 21.8625 4.69788 21.8625 5.98461C21.8625 7.27134 22.9056 8.31443 24.1923 8.31443Z" fill="#F0B16E"/>
<path fill-rule="evenodd" clip-rule="evenodd" d="M9.91007 28.4168C10.1729 28.6651 10.1852 29.0792 9.93743 29.3441L9.34857 29.9678C9.10319 30.2293 8.6829 30.2421 8.42399 29.9955C8.16095 29.747 8.14886 29.3331 8.39634 29.0737L8.9854 28.4444C9.23327 28.185 9.64722 28.1684 9.91007 28.4168ZM7.0415 32.6836C6.71049 32.5401 6.55958 32.1537 6.70425 31.8225L7.00914 31.1269C7.15382 30.7957 7.53954 30.6466 7.87036 30.7902C8.20137 30.9337 8.35228 31.3201 8.20761 31.6513L7.90271 32.3468C7.75391 32.6885 7.35628 32.8264 7.0415 32.6836ZM6.87244 35.4711C6.5111 35.4711 6.2183 35.1786 6.2183 34.8143V34.0912C6.2183 33.7325 6.5111 33.4399 6.87244 33.4399C7.23359 33.4399 7.52639 33.7324 7.52639 34.0912V34.8143C7.52639 35.1786 7.23359 35.4711 6.87244 35.4711ZM7.87036 38.1152C7.55558 38.258 7.15785 38.12 7.00914 37.7785L6.70425 37.083C6.55958 36.7518 6.71049 36.3654 7.0415 36.2218C7.37222 36.0783 7.75804 36.2273 7.90271 36.5585L8.20761 37.254C8.35218 37.5852 8.20137 37.9716 7.87036 38.1152ZM9.93743 39.5669C10.3257 39.9734 10.041 40.6653 9.46156 40.6653C9.2878 40.6653 9.11423 40.5991 8.9855 40.4611L8.39644 39.8374C8.14895 39.5724 8.16095 39.1585 8.42409 38.91C8.68694 38.6672 9.10089 38.6782 9.34866 38.9376L9.93743 39.5669ZM12.8629 42.4703C12.6747 42.7821 12.2757 42.8776 11.9638 42.6855L11.1306 42.1777C10.8227 41.99 10.7259 41.5871 10.9146 41.278C11.1034 40.9689 11.5063 40.8751 11.8141 41.0627L12.6471 41.5706C12.9551 41.7583 13.0519 42.1612 12.8629 42.4703ZM16.5628 43.9386C16.4413 44.285 16.0602 44.4579 15.7282 44.3361L14.7081 43.9773C14.6271 43.9489 14.5525 43.9047 14.4886 43.8474C14.4248 43.7901 14.3728 43.7207 14.3358 43.6433C14.2988 43.5658 14.2774 43.4819 14.2729 43.3962C14.2684 43.3105 14.2809 43.2247 14.3096 43.1438C14.338 43.0627 14.3822 42.9881 14.4396 42.9241C14.497 42.8602 14.5665 42.8083 14.6441 42.7713C14.7217 42.7344 14.8058 42.7131 14.8917 42.7089C14.9775 42.7046 15.0633 42.7173 15.1442 42.7464L16.1643 43.1051C16.505 43.2265 16.6833 43.6018 16.5628 43.9386ZM20.7813 44.7886C20.7208 45.1564 20.3688 45.3836 20.0301 45.3296L18.8921 45.1419C18.5358 45.0812 18.2942 44.7444 18.3526 44.3912C18.4113 44.0324 18.7476 43.795 19.104 43.8502L20.2419 44.0379C20.5983 44.0986 20.8398 44.4353 20.7813 44.7886ZM25.2429 44.9321C25.2502 45.2964 24.9634 45.5945 24.6025 45.6H23.3974C23.0362 45.5944 22.7494 45.2964 22.757 44.9321C22.7646 44.5734 23.0638 44.2863 23.4244 44.2918C23.817 44.3028 24.1829 44.3028 24.5755 44.2918C24.9368 44.2863 25.2354 44.5734 25.2429 44.9321ZM29.6471 44.3912C29.7058 44.7444 29.4643 45.0811 29.1079 45.1419C28.8919 45.1781 28.0181 45.3351 27.8633 45.3351C27.5485 45.3351 27.2712 45.1088 27.2186 44.7887C27.1599 44.4354 27.4015 44.0986 27.7581 44.038L28.896 43.8503C29.2525 43.7951 29.5887 44.0324 29.6471 44.3912ZM33.6904 43.1437C33.7191 43.2246 33.7316 43.3104 33.7271 43.3961C33.7226 43.4818 33.7012 43.5657 33.6642 43.6432C33.6272 43.7206 33.5753 43.79 33.5114 43.8473C33.4475 43.9046 33.373 43.9487 33.292 43.9772L32.2719 44.336C31.9392 44.4581 31.5601 44.2851 31.4373 43.9385C31.3167 43.6017 31.4951 43.2265 31.8358 43.105L32.8559 42.7463C32.9368 42.7173 33.0226 42.7045 33.1084 42.7088C33.1942 42.7131 33.2783 42.7343 33.3559 42.7713C33.4335 42.8082 33.503 42.8601 33.5604 42.9241C33.6178 42.988 33.662 43.0626 33.6904 43.1437ZM37.0854 41.278C37.274 41.5871 37.1772 41.99 36.8694 42.1777L36.0364 42.6855C35.7249 42.8772 35.3269 42.7831 35.137 42.4703C34.9484 42.1612 35.045 41.7583 35.353 41.5706L36.186 41.0627C36.4939 40.8751 36.8964 40.9689 37.0854 41.278ZM39.5759 38.91C39.8387 39.1585 39.851 39.5724 39.6034 39.8374L39.0144 40.4611C38.7685 40.7231 38.3482 40.7349 38.0898 40.4887C37.8271 40.2403 37.8147 39.8263 38.0625 39.5669L38.6515 38.9376C38.8994 38.6782 39.3131 38.6672 39.5759 38.91ZM41.2957 37.083L40.9908 37.7785C40.8436 38.1164 40.453 38.2586 40.1294 38.1152C39.7987 37.9716 39.6477 37.5852 39.7924 37.254L40.0973 36.5585C40.2419 36.2273 40.6277 36.0783 40.9584 36.2218C41.2894 36.3654 41.4404 36.7518 41.2957 37.083ZM41.7817 34.0912V34.8143C41.7817 35.1786 41.4889 35.4711 41.1277 35.4711C40.7664 35.4711 40.4735 35.1786 40.4735 34.8143V34.0912C40.4735 33.7325 40.7663 33.4399 41.1277 33.4399C41.489 33.4399 41.7817 33.7324 41.7817 34.0912ZM39.7925 31.6514C39.6478 31.3202 39.7987 30.9338 40.1295 30.7903C40.4604 30.6467 40.8463 30.7957 40.9909 31.127L41.2958 31.8225C41.4864 32.2579 41.1575 32.7389 40.6968 32.7389C40.4448 32.7389 40.2048 32.5953 40.0974 32.347L39.7925 31.6514ZM39.6035 29.0737C39.9914 29.4801 39.7069 30.1721 39.1277 30.1721C38.9537 30.1721 38.7801 30.1059 38.6516 29.9678L38.0625 29.3441C37.8148 29.0792 37.8272 28.6652 38.0899 28.4168C38.3528 28.1684 38.7667 28.1849 39.0145 28.4444L39.6035 29.0737ZM41.0676 16.0358C41.2983 15.6296 40.6359 15.2185 40.3703 15.5998C39.5581 16.7791 38.6602 17.8971 37.6841 18.9448C36.7265 19.9715 35.5837 21.1969 34.0654 21.8096C33.7634 21.9641 33.4315 22.069 33.0809 22.1076C32.6195 22.1835 32.3139 22.2291 31.8569 22.2291C30.0633 22.2291 29.1925 21.3514 28.0465 20.2033L25.3321 17.4875C25.0131 17.1653 24.4866 17.6261 24.7121 17.9898C26.4587 20.8076 28.0645 22.6874 28.0467 26.5897C28.0323 29.7364 26.7737 34.3319 25.9515 37.8777C25.9295 37.9715 25.9893 38.0709 26.0845 38.093C26.1994 38.1225 26.3414 38.1966 26.4272 38.0433L30.2527 31.1932C30.6025 30.57 31.5796 30.8901 31.4703 31.6127L30.4601 38.2696C30.4357 38.4303 30.5523 38.5702 30.7128 38.5843C30.8812 38.599 31.0583 38.6252 31.1409 38.4243C32.7884 34.3893 34.1913 30.1887 35.4297 25.5741C35.6082 24.9117 35.8621 24.3597 36.2533 23.7967C37.9446 21.3459 39.5643 18.735 41.0676 16.0358ZM23.2879 17.9898C23.5141 17.627 22.9871 17.165 22.668 17.4875L19.9536 20.2033C18.4676 21.6921 17.556 22.5408 14.9189 22.1076C14.5683 22.069 14.2367 21.9641 13.9346 21.8096C12.4162 21.1969 11.2735 19.9714 10.3159 18.9448C9.3397 17.8971 8.44186 16.7791 7.62959 15.5998C7.35993 15.2146 6.70463 15.6309 6.93234 16.0358C8.43542 18.7351 10.0551 21.3459 11.7466 23.7968C12.1378 24.3598 12.3918 24.9118 12.5703 25.5742C13.8086 30.1888 15.2115 34.3894 16.8591 38.4244C16.9415 38.6254 17.1182 38.5992 17.2869 38.5844C17.4477 38.5703 17.5642 38.4303 17.5399 38.2697L16.5298 31.6128C16.421 30.8937 17.3979 30.568 17.7473 31.1933L21.5728 38.0433C21.6164 38.1206 21.6936 38.1537 21.7796 38.1317C21.8946 38.1006 22.092 38.0654 22.0482 37.8777C21.2245 34.3422 19.9676 29.7157 19.9533 26.5897C19.9354 22.6657 21.5499 20.8096 23.2879 17.9898ZM8.14156 14.1315C9.32207 14.2419 10.3254 14.1921 11.209 13.9934C14.1211 13.3331 14.4707 11.5602 15.4342 9.48373L17.0188 6.05038C17.1835 6.37602 17.3508 6.71278 17.5186 7.05502C16.6114 10.4884 15.9907 13.3145 15.7537 16.2952C15.5922 16.2621 15.4263 16.2511 15.2571 16.2511C13.6554 16.2511 12.3501 17.5372 12.3197 19.1324C11.0621 17.9231 9.67554 16.2673 8.70633 14.86C8.50938 14.5725 8.22538 14.3558 7.89609 14.2418C7.92806 14.1872 8.02578 14.12 8.14156 14.1315ZM11.4701 9.12498C10.5709 9.12498 9.83932 9.85909 9.83932 10.7589C9.83932 12.0405 11.2746 12.8391 12.3808 12.1112C12.3818 12.0977 13.101 11.6766 13.101 10.7589C13.101 9.85909 12.3694 9.12498 11.4701 9.12498ZM17.0255 16.8417C17.197 14.2307 17.6786 11.7579 18.3996 8.87653C19.999 12.2972 20.4963 14.0033 20.7145 17.5924L19.0271 19.2814C18.6367 19.6733 18.3124 19.9934 17.9962 20.2529C18.4767 19.0144 18.068 17.6276 17.0255 16.8417ZM14.4763 20.6172C13.9702 20.3412 13.6263 19.8058 13.6263 19.1876C13.6263 18.2879 14.3581 17.5592 15.2573 17.5592C16.1564 17.5592 16.888 18.2879 16.888 19.1876C16.888 20.0873 16.1564 20.8215 15.2573 20.8215C15.0301 20.8215 14.681 20.7 14.4763 20.6172ZM17.5141 3.89211C17.5879 3.7124 17.9335 3.60891 18.0646 3.84795C19.0617 5.63634 20.2199 7.07701 21.5068 8.12034C22.9747 9.31813 25.0255 9.31813 26.4934 8.12034C27.7804 7.0771 28.9385 5.63643 29.9355 3.84795C30.1048 3.54123 30.6431 3.78709 30.4785 4.11838C28.9816 7.1301 26.9915 10.9018 26.4197 13.8333C26.2666 14.6171 26.1488 15.4616 26.0632 16.4C25.4426 15.9331 24.5953 15.9675 24.0002 16.4607C23.4052 15.9683 22.5603 15.9329 21.9367 16.4C21.8512 15.4616 21.7335 14.6171 21.5805 13.8333C20.9944 10.8283 19.019 7.17195 17.5216 4.11838C17.4725 4.01912 17.4958 3.9308 17.5141 3.89211ZM24.0001 4.44968C23.1008 4.44968 22.3691 5.17832 22.3691 6.07803C22.3691 6.92254 23.0113 7.61806 23.8317 7.70082C24.8346 7.77608 25.6308 7.03842 25.6308 6.07803C25.6308 5.17832 24.8992 4.44968 24.0001 4.44968ZM29.6002 8.87662C30.3214 11.758 30.8031 14.2308 30.9747 16.8417C30.4631 17.2268 30.0914 17.7684 29.9161 18.3842C29.7408 19.0001 29.7715 19.6563 30.0035 20.253C29.6877 19.9936 29.3634 19.6735 28.973 19.2815L27.2853 17.5925C27.5041 14.0019 28.0003 12.2991 29.6002 8.87662ZM32.8877 20.8105C31.9629 20.917 31.1121 20.1532 31.1121 19.1877C31.1121 18.288 31.8437 17.5593 32.7428 17.5593C33.6421 17.5593 34.3736 18.288 34.3736 19.1877C34.3736 19.8059 34.0299 20.3413 33.5241 20.6173C33.3183 20.7012 33.1053 20.7659 32.8877 20.8105ZM32.937 10.3228C33.4122 11.4222 33.9016 12.5288 34.9007 13.1985C36.2691 14.1161 38.0193 14.3091 39.8584 14.1314C39.9742 14.1202 40.0715 14.1869 40.1038 14.2418C39.7745 14.3558 39.4904 14.5725 39.2935 14.86C38.3242 16.2674 36.9378 17.923 35.6801 19.1324C35.6497 17.5372 34.3442 16.2511 32.7427 16.2511C32.5735 16.2511 32.4077 16.2621 32.2461 16.2952C32.0091 13.3145 31.3883 10.4938 30.4813 7.05502C30.6459 6.71914 30.8125 6.38426 30.9811 6.05038L32.5657 9.48373C32.7001 9.77077 32.8207 10.0523 32.937 10.3228ZM36.5299 9.12498C35.6306 9.12498 34.899 9.85909 34.899 10.7589C34.899 11.2517 35.1444 11.7474 35.5027 12.0229C36.6621 12.9148 38.1607 12.052 38.1607 10.7589C38.1607 9.85909 37.429 9.12498 36.5299 9.12498ZM41.675 14.4681L41.4648 14.3357C41.4263 13.435 40.6396 12.7444 39.7394 12.8288C39.3187 12.8673 38.9273 12.884 38.5595 12.8784C39.1191 12.343 39.4686 11.5923 39.4686 10.7588C39.4686 9.13602 38.1503 7.81669 36.5299 7.81669C35.4148 7.81669 34.4427 8.4404 33.9448 9.35672L31.7219 4.53243C31.8583 4.15707 31.8474 3.75416 31.6882 3.3788C31.1871 2.20251 29.4573 2.01579 28.7926 3.2132C28.2226 4.23435 27.5998 5.12859 26.9318 5.88478C26.8322 4.35579 25.5558 3.14139 24.0001 3.14139C22.4441 3.14139 21.1677 4.3557 21.0681 5.88478C20.4001 5.12859 19.7774 4.23435 19.2073 3.2132C18.5291 1.99659 16.8002 2.22181 16.3102 3.3788C16.1545 3.74557 16.1431 4.15758 16.2781 4.53243L14.0549 9.35672C13.557 8.4404 12.5852 7.81669 11.4701 7.81669C9.84969 7.81669 8.53142 9.13592 8.53142 10.7588C8.53142 11.5923 8.88095 12.343 9.44054 12.8784C9.07266 12.884 8.68137 12.8673 8.2607 12.8288C7.36012 12.7444 6.57436 13.435 6.53529 14.3357L6.32505 14.4681C5.60226 14.9483 5.36726 15.9144 5.78985 16.676C7.31318 19.4083 8.95506 22.0523 10.6701 24.5362C10.9765 24.9833 11.1671 25.3918 11.3071 25.9162C12.5598 30.5805 13.9798 34.8308 15.6481 38.921C15.9051 39.5488 16.5765 39.9688 17.2247 39.898L17.3787 39.8869C18.3135 39.8242 18.9712 38.98 18.833 38.0709L18.364 34.9798L20.431 38.6781C20.7673 39.2797 21.4413 39.5723 22.1085 39.3957L22.2443 39.3626C22.6209 39.2663 22.9448 39.0263 23.1466 38.694C23.3483 38.3618 23.4118 37.9637 23.3236 37.5851C22.5306 34.1224 21.2751 29.6025 21.2613 26.5841C21.2465 23.3472 22.4669 21.7405 24.0002 19.3145C25.5309 21.7426 26.7538 23.3401 26.7388 26.5841C26.7248 29.6053 25.4695 34.121 24.6766 37.5851C24.5884 37.9637 24.6519 38.3617 24.8536 38.694C25.0553 39.0262 25.3792 39.2662 25.7557 39.3626L25.8916 39.3957C26.559 39.5723 27.233 39.2797 27.5691 38.6781L29.636 34.9798L29.167 38.0709C29.0288 38.98 29.6867 39.8242 30.6211 39.8869L30.8876 39.9035C31.2016 39.9034 31.5084 39.8099 31.7691 39.6349C32.0299 39.46 32.2327 39.2115 32.3518 38.921C34.0201 34.8308 35.4401 30.5805 36.6929 25.9162C36.8329 25.3919 37.0234 24.9834 37.3299 24.5362C39.0446 22.0523 40.6866 19.4083 42.2102 16.676C42.6327 15.9144 42.3977 14.9484 41.675 14.4681Z" fill="#1E2F3F"/>
</svg>
