<svg width="48" height="48" viewBox="0 0 48 48" fill="none" xmlns="http://www.w3.org/2000/svg">
<path d="M26 5H34V19H26V5Z" fill="url(#paint0_linear_935_2234)"/>
<path d="M34 1H26C25.4477 1 25 1.44772 25 2V4C25 4.55228 25.4477 5 26 5H34C34.5523 5 35 4.55228 35 4V2C35 1.44772 34.5523 1 34 1Z" fill="#EB7F58"/>
<path d="M1 38H39V42H1V38Z" fill="#9DB8D3"/>
<path d="M35 17V38H5V17L20 4L35 17Z" fill="url(#paint1_linear_935_2234)"/>
<path d="M30 20H22C21.4477 20 21 20.4477 21 21V33C21 33.5523 21.4477 34 22 34H30C30.5523 34 31 33.5523 31 33V21C31 20.4477 30.5523 20 30 20Z" fill="url(#paint2_linear_935_2234)"/>
<path d="M31 26H27V20H25V26H21V28H25V34H27V28H31V26Z" fill="#D7E9F7"/>
<path d="M37 20.9999C36.5138 20.9992 36.0446 20.8215 35.68 20.4999L20 6.66991L4.31999 20.4999C3.91864 20.8232 3.40801 20.979 2.89455 20.935C2.3811 20.891 1.90445 20.6504 1.564 20.2636C1.22356 19.8767 1.04558 19.3733 1.06719 18.8585C1.0888 18.3436 1.30832 17.8569 1.67999 17.4999L18.68 2.49991C19.045 2.17927 19.5142 2.00244 20 2.00244C20.4858 2.00244 20.955 2.17927 21.32 2.49991L38.32 17.4999C38.6245 17.7685 38.84 18.1233 38.938 18.5173C39.036 18.9113 39.0117 19.3258 38.8684 19.7057C38.7252 20.0856 38.4697 20.4128 38.1359 20.644C37.8022 20.8752 37.406 20.9993 37 20.9999Z" fill="#4795EA"/>
<path d="M37 47C42.5228 47 47 42.5228 47 37C47 31.4772 42.5228 27 37 27C31.4772 27 27 31.4772 27 37C27 42.5228 31.4772 47 37 47Z" fill="url(#paint3_linear_935_2234)"/>
<path d="M37 44C40.866 44 44 40.866 44 37C44 33.134 40.866 30 37 30C33.134 30 30 33.134 30 37C30 40.866 33.134 44 37 44Z" fill="#EB7F58"/>
<path d="M10 26H18C18.2652 26 18.5196 26.1054 18.7071 26.2929C18.8946 26.4804 19 26.7348 19 27V38H9V27C9 26.7348 9.10536 26.4804 9.29289 26.2929C9.48043 26.1054 9.73478 26 10 26Z" fill="#FFB369"/>
<path d="M16 33C16.5523 33 17 32.5523 17 32C17 31.4477 16.5523 31 16 31C15.4477 31 15 31.4477 15 32C15 32.5523 15.4477 33 16 33Z" fill="#F0F7FC"/>
<path d="M3.5 34C2.83696 34 2.20107 34.2634 1.73223 34.7322C1.26339 35.2011 1 35.837 1 36.5V38H6V36.5C6 36.1717 5.93534 35.8466 5.8097 35.5433C5.68406 35.24 5.49991 34.9644 5.26777 34.7322C5.03562 34.5001 4.76002 34.3159 4.45671 34.1903C4.15339 34.0647 3.8283 34 3.5 34Z" fill="#FFB369"/>
<path d="M36 39.9999C35.46 39.9999 35.43 39.8499 33.29 37.7099C33.1968 37.6167 33.1228 37.506 33.0723 37.3842C33.0219 37.2624 32.9959 37.1318 32.9959 36.9999C32.9959 36.8681 33.0219 36.7375 33.0723 36.6157C33.1228 36.4939 33.1968 36.3832 33.29 36.2899C33.3832 36.1967 33.4939 36.1227 33.6158 36.0723C33.7376 36.0218 33.8681 35.9958 34 35.9958C34.1319 35.9958 34.2624 36.0218 34.3843 36.0723C34.5061 36.1227 34.6168 36.1967 34.71 36.2899L36 37.5899L39.29 34.2899C39.4783 34.1016 39.7337 33.9958 40 33.9958C40.2663 33.9958 40.5217 34.1016 40.71 34.2899C40.8983 34.4782 41.0041 34.7336 41.0041 34.9999C41.0041 35.2662 40.8983 35.5216 40.71 35.7099L36.71 39.7099C36.6166 39.8026 36.5057 39.8759 36.3839 39.9257C36.2621 39.9755 36.1316 40.0007 36 39.9999Z" fill="#F0F7FC"/>
<path d="M18 20H10C9.44772 20 9 20.4477 9 21V23C9 23.5523 9.44772 24 10 24H18C18.5523 24 19 23.5523 19 23V21C19 20.4477 18.5523 20 18 20Z" fill="url(#paint4_linear_935_2234)"/>
<defs>
<linearGradient id="paint0_linear_935_2234" x1="30" y1="19" x2="30" y2="5" gradientUnits="userSpaceOnUse">
<stop stop-color="#FE9661"/>
<stop offset="1" stop-color="#FFB369"/>
</linearGradient>
<linearGradient id="paint1_linear_935_2234" x1="20" y1="38" x2="20" y2="4" gradientUnits="userSpaceOnUse">
<stop stop-color="#D3E6F5"/>
<stop offset="1" stop-color="#F0F7FC"/>
</linearGradient>
<linearGradient id="paint2_linear_935_2234" x1="26" y1="34" x2="26" y2="20" gradientUnits="userSpaceOnUse">
<stop stop-color="#54A5FF"/>
<stop offset="1" stop-color="#8AD3FE"/>
</linearGradient>
<linearGradient id="paint3_linear_935_2234" x1="27" y1="37" x2="47" y2="37" gradientUnits="userSpaceOnUse">
<stop stop-color="#FE9661"/>
<stop offset="1" stop-color="#FFB369"/>
</linearGradient>
<linearGradient id="paint4_linear_935_2234" x1="14" y1="24" x2="14" y2="20" gradientUnits="userSpaceOnUse">
<stop stop-color="#54A5FF"/>
<stop offset="1" stop-color="#8AD3FE"/>
</linearGradient>
</defs>
</svg>
