<svg width="338" height="34" viewBox="0 0 338 34" fill="none" xmlns="http://www.w3.org/2000/svg">
<path d="M9.5976 33.5091L0 0H7.74687L13.2991 23.283H13.5775L19.7029 0H26.3361L32.4451 23.3321H32.7399L38.2921 0H46.039L36.4414 33.5091H29.5298L23.1423 11.6006H22.8803L16.5092 33.5091H9.5976Z" fill="#F97316"/>
<path d="M54.1748 33.9836C52.5698 33.9836 51.1394 33.7055 49.8838 33.1492C48.6281 32.582 47.6345 31.7475 46.9029 30.6458C46.1823 29.5332 45.822 28.1479 45.822 26.4899C45.822 25.0937 46.0786 23.9211 46.5917 22.9721C47.1049 22.0231 47.8037 21.2595 48.6881 20.6814C49.5726 20.1033 50.5771 19.667 51.7017 19.3725C52.8373 19.078 54.0274 18.8707 55.2722 18.7507C56.7353 18.598 57.9145 18.4562 58.8098 18.3253C59.7052 18.1835 60.3549 17.9763 60.7588 17.7036C61.1628 17.4309 61.3648 17.0273 61.3648 16.4928V16.3946C61.3648 15.3584 61.0373 14.5566 60.3822 13.9894C59.7379 13.4222 58.8208 13.1386 57.6306 13.1386C56.375 13.1386 55.3759 13.4167 54.6334 13.9731C53.8909 14.5184 53.3996 15.2056 53.1594 16.0346L46.7064 15.5111C47.034 13.984 47.6782 12.6641 48.639 11.5515C49.5999 10.428 50.8391 9.56625 52.3569 8.96631C53.8855 8.35547 55.6543 8.05005 57.6634 8.05005C59.061 8.05005 60.3985 8.21367 61.676 8.5409C62.9644 8.86814 64.1054 9.37536 65.0991 10.0626C66.1036 10.7498 66.8952 11.6333 67.4739 12.7132C68.0526 13.7822 68.3419 15.0638 68.3419 16.5582V33.5091H61.7252V30.0241H61.5286C61.1246 30.8094 60.5841 31.5021 59.9072 32.102C59.2302 32.691 58.4168 33.1546 57.4668 33.4928C56.5169 33.82 55.4196 33.9836 54.1748 33.9836ZM56.173 29.1732C57.1993 29.1732 58.1056 28.9714 58.8917 28.5679C59.6779 28.1534 60.2948 27.597 60.7425 26.8989C61.1901 26.2008 61.414 25.41 61.414 24.5265V21.8595C61.1956 22.0013 60.8953 22.1322 60.5132 22.2522C60.1419 22.3612 59.7216 22.4649 59.2521 22.563C58.7826 22.6503 58.313 22.7321 57.8435 22.8085C57.374 22.8739 56.9482 22.9339 56.566 22.9885C55.7471 23.1084 55.032 23.2993 54.4205 23.5611C53.8091 23.8229 53.3341 24.1774 52.9956 24.6246C52.6571 25.061 52.4879 25.6064 52.4879 26.2608C52.4879 27.2098 52.8318 27.9352 53.5197 28.437C54.2185 28.9278 55.1029 29.1732 56.173 29.1732Z" fill="#F97316"/>
<path d="M73.7549 33.5091V8.37729H80.5191V12.7623H80.7811C81.2397 11.2024 82.0095 10.0244 83.0905 9.2281C84.1714 8.42092 85.4162 8.01732 86.8247 8.01732C87.1741 8.01732 87.5508 8.03914 87.9548 8.08277C88.3588 8.1264 88.7136 8.1864 89.0194 8.26275V14.4475C88.6918 14.3494 88.2387 14.2621 87.66 14.1858C87.0813 14.1094 86.5517 14.0712 86.0713 14.0712C85.0449 14.0712 84.1277 14.2948 83.3198 14.7421C82.5227 15.1784 81.8894 15.7892 81.4199 16.5746C80.9613 17.36 80.732 18.2653 80.732 19.2907V33.5091H73.7549Z" fill="#F97316"/>
<path d="M92.6266 33.5091V8.37729H99.2762V12.8114H99.571C100.095 11.3388 100.969 10.1771 102.191 9.32627C103.414 8.47546 104.877 8.05005 106.581 8.05005C108.306 8.05005 109.775 8.48091 110.987 9.34264C112.199 10.1935 113.007 11.3497 113.411 12.8114H113.673C114.186 11.3715 115.114 10.2207 116.457 9.359C117.811 8.48637 119.41 8.05005 121.256 8.05005C123.603 8.05005 125.509 8.79724 126.972 10.2916C128.446 11.7751 129.183 13.8803 129.183 16.6073V33.5091H122.222V17.9817C122.222 16.5855 121.851 15.5383 121.108 14.8402C120.366 14.1421 119.438 13.7931 118.324 13.7931C117.057 13.7931 116.069 14.1967 115.36 15.0038C114.65 15.8001 114.295 16.8527 114.295 18.1617V33.5091H107.531V17.8345C107.531 16.6019 107.176 15.6201 106.466 14.8893C105.767 14.1585 104.845 13.7931 103.698 13.7931C102.923 13.7931 102.224 13.9894 101.602 14.3821C100.99 14.7639 100.505 15.3038 100.144 16.0019C99.7839 16.6891 99.6037 17.4963 99.6037 18.4235V33.5091H92.6266Z" fill="#F97316"/>
<path d="M140.033 33.5091L130.436 0H138.182L143.735 23.283H144.013L150.139 0H156.772L162.881 23.3321H163.176L168.728 0H176.475L166.877 33.5091H159.965L153.578 11.6006H153.316L146.945 33.5091H140.033Z" fill="black"/>
<path d="M188.902 34C186.314 34 184.086 33.4764 182.219 32.4293C180.363 31.3712 178.933 29.8768 177.928 27.9461C176.924 26.0045 176.421 23.7084 176.421 21.0577C176.421 18.4726 176.924 16.2037 177.928 14.2512C178.933 12.2987 180.347 10.777 182.17 9.68624C184.004 8.59544 186.155 8.05005 188.623 8.05005C190.283 8.05005 191.828 8.31729 193.258 8.85178C194.699 9.37536 195.955 10.1662 197.025 11.2243C198.106 12.2823 198.947 13.6131 199.547 15.2166C200.148 16.8091 200.448 18.6744 200.448 20.8123V22.7267H179.206V18.4071H193.88C193.88 17.4036 193.662 16.5146 193.225 15.7401C192.789 14.9657 192.183 14.3603 191.407 13.924C190.643 13.4767 189.753 13.2531 188.738 13.2531C187.679 13.2531 186.74 13.4986 185.921 13.9894C185.113 14.4694 184.479 15.1184 184.021 15.9365C183.562 16.7437 183.327 17.6436 183.317 18.6362V22.743C183.317 23.9865 183.546 25.061 184.004 25.9663C184.474 26.8717 185.135 27.5698 185.986 28.0606C186.838 28.5515 187.848 28.7969 189.016 28.7969C189.791 28.7969 190.501 28.6878 191.145 28.4697C191.79 28.2515 192.341 27.9243 192.8 27.488C193.258 27.0517 193.607 26.5172 193.848 25.8845L200.301 26.3099C199.973 27.8588 199.302 29.2114 198.286 30.3677C197.282 31.513 195.982 32.4074 194.388 33.051C192.805 33.6837 190.976 34 188.902 34Z" fill="black"/>
<path d="M211.978 0V33.5091H205.001V0H211.978Z" fill="black"/>
<path d="M228.934 34C226.357 34 224.14 33.4546 222.284 32.3638C220.439 31.2621 219.02 29.735 218.026 27.7825C217.043 25.83 216.552 23.5829 216.552 21.0414C216.552 18.4671 217.049 16.2092 218.042 14.2676C219.047 12.315 220.472 10.7934 222.317 9.7026C224.162 8.6009 226.357 8.05005 228.901 8.05005C231.096 8.05005 233.017 8.44819 234.666 9.24446C236.315 10.0407 237.62 11.1588 238.581 12.5987C239.541 14.0385 240.071 15.7292 240.169 17.6708H233.585C233.4 16.4164 232.908 15.4074 232.111 14.6439C231.325 13.8694 230.293 13.4822 229.016 13.4822C227.935 13.4822 226.99 13.7767 226.182 14.3657C225.385 14.9439 224.763 15.7892 224.315 16.9018C223.867 18.0144 223.644 19.3616 223.644 20.9432C223.644 22.5467 223.862 23.9102 224.299 25.0337C224.746 26.1572 225.374 27.0135 226.182 27.6025C226.99 28.1915 227.935 28.486 229.016 28.486C229.813 28.486 230.528 28.3224 231.161 27.9952C231.805 27.6679 232.335 27.1935 232.75 26.5717C233.176 25.939 233.454 25.1809 233.585 24.2974H240.169C240.06 26.2172 239.536 27.9079 238.597 29.3696C237.669 30.8203 236.386 31.9548 234.748 32.7729C233.11 33.591 231.172 34 228.934 34Z" fill="black"/>
<path d="M256.003 34C253.459 34 251.259 33.4601 249.402 32.3802C247.557 31.2894 246.132 29.7732 245.128 27.8316C244.123 25.8791 243.621 23.6157 243.621 21.0414C243.621 18.4453 244.123 16.1765 245.128 14.2348C246.132 12.2823 247.557 10.7661 249.402 9.68624C251.259 8.59544 253.459 8.05005 256.003 8.05005C258.547 8.05005 260.742 8.59544 262.587 9.68624C264.443 10.7661 265.873 12.2823 266.878 14.2348C267.882 16.1765 268.385 18.4453 268.385 21.0414C268.385 23.6157 267.882 25.8791 266.878 27.8316C265.873 29.7732 264.443 31.2894 262.587 32.3802C260.742 33.4601 258.547 34 256.003 34ZM256.036 28.6006C257.193 28.6006 258.159 28.2733 258.934 27.6189C259.71 26.9535 260.294 26.0481 260.687 24.9028C261.091 23.7575 261.293 22.454 261.293 20.9923C261.293 19.5306 261.091 18.2271 260.687 17.0818C260.294 15.9365 259.71 15.0311 258.934 14.3657C258.159 13.7004 257.193 13.3677 256.036 13.3677C254.867 13.3677 253.885 13.7004 253.087 14.3657C252.301 15.0311 251.706 15.9365 251.302 17.0818C250.909 18.2271 250.713 19.5306 250.713 20.9923C250.713 22.454 250.909 23.7575 251.302 24.9028C251.706 26.0481 252.301 26.9535 253.087 27.6189C253.885 28.2733 254.867 28.6006 256.036 28.6006Z" fill="black"/>
<path d="M272.921 33.5091V8.37729H279.571V12.8114H279.866C280.39 11.3388 281.263 10.1771 282.486 9.32627C283.709 8.47546 285.172 8.05005 286.876 8.05005C288.601 8.05005 290.069 8.48091 291.281 9.34264C292.493 10.1935 293.301 11.3497 293.705 12.8114H293.967C294.481 11.3715 295.409 10.2207 296.752 9.359C298.106 8.48637 299.705 8.05005 301.55 8.05005C303.898 8.05005 305.803 8.79724 307.266 10.2916C308.74 11.7751 309.477 13.8803 309.477 16.6073V33.5091H302.517V17.9817C302.517 16.5855 302.146 15.5383 301.403 14.8402C300.661 14.1421 299.732 13.7931 298.619 13.7931C297.352 13.7931 296.364 14.1967 295.654 15.0038C294.945 15.8001 294.59 16.8527 294.59 18.1617V33.5091H287.826V17.8345C287.826 16.6019 287.471 15.6201 286.761 14.8893C286.062 14.1585 285.14 13.7931 283.993 13.7931C283.218 13.7931 282.519 13.9894 281.897 14.3821C281.285 14.7639 280.799 15.3038 280.439 16.0019C280.079 16.6891 279.899 17.4963 279.899 18.4235V33.5091H272.921Z" fill="black"/>
<path d="M326.453 34C323.866 34 321.638 33.4764 319.771 32.4293C317.915 31.3712 316.485 29.8768 315.48 27.9461C314.476 26.0045 313.973 23.7084 313.973 21.0577C313.973 18.4726 314.476 16.2037 315.48 14.2512C316.485 12.2987 317.899 10.777 319.722 9.68624C321.556 8.59544 323.707 8.05005 326.175 8.05005C327.835 8.05005 329.38 8.31729 330.81 8.85178C332.251 9.37536 333.507 10.1662 334.577 11.2243C335.658 12.2823 336.499 13.6131 337.099 15.2166C337.7 16.8091 338 18.6744 338 20.8123V22.7267H316.758V18.4071H331.432C331.432 17.4036 331.214 16.5146 330.777 15.7401C330.34 14.9657 329.734 14.3603 328.959 13.924C328.195 13.4767 327.305 13.2531 326.29 13.2531C325.23 13.2531 324.291 13.4986 323.473 13.9894C322.665 14.4694 322.031 15.1184 321.573 15.9365C321.114 16.7437 320.879 17.6436 320.868 18.6362V22.743C320.868 23.9865 321.098 25.061 321.556 25.9663C322.026 26.8717 322.686 27.5698 323.538 28.0606C324.39 28.5515 325.4 28.7969 326.568 28.7969C327.343 28.7969 328.053 28.6878 328.697 28.4697C329.341 28.2515 329.893 27.9243 330.351 27.488C330.81 27.0517 331.159 26.5172 331.4 25.8845L337.853 26.3099C337.525 27.8588 336.854 29.2114 335.838 30.3677C334.834 31.513 333.534 32.4074 331.94 33.051C330.357 33.6837 328.528 34 326.453 34Z" fill="black"/>
</svg>
